<?xml version="1.0" encoding="utf-8"?>
<!-- Generator: Adobe Illustrator 24.3.0, SVG Export Plug-In . SVG Version: 6.00 Build 0)  -->
<svg version="1.1" id="Calque_1" xmlns="http://www.w3.org/2000/svg" xmlns:xlink="http://www.w3.org/1999/xlink" x="0px" y="0px"
	 viewBox="0 0 1000 1000" style="enable-background:new 0 0 1000 1000;" xml:space="preserve">
<style type="text/css">
	.st0{fill:none;stroke:#FFFFFF;stroke-width:5;stroke-miterlimit:10;}
</style>
<polygon class="st0" points="391.52,987.71 433.03,961.19 464.82,993.4 383.13,993.4 "/>
<g>
	<g>
		<path d="M592.64,953.86c8.84,6.11,17.24,11.62,25.58,17.21c8.22,5.51,16.45,11.01,24.59,16.47c-0.27,1.37-1.15,1.2-1.91,1.22
			c-2.56,0.05-5.13-0.1-7.67,0.14c-4.7,0.43-8.81-0.89-12.68-3.45c-8.01-5.29-16.05-10.52-24.1-15.76c-3.2-2.08-6.44-4.1-9.8-6.23
			c-1.37,1.23-2.58,2.24-3.7,3.34c-5.8,5.73-11.58,11.49-17.37,17.24c-0.11,0.11-0.23,0.23-0.34,0.34
			c-4.41,4.35-4.48,4.4-10.51,4.42c-2.88,0.01-5.76-0.07-8.64-0.15c-0.57-0.02-1.13-0.2-2.21-0.41c1.86-2.46,3.9-3.97,5.69-5.71
			c1.95-1.89,3.96-3.73,5.94-5.59c1.87-1.75,3.74-3.5,5.61-5.25c1.87-1.75,3.74-3.49,5.61-5.24c1.98-1.86,3.99-3.7,5.94-5.59
			c1.82-1.77,3.9-3.29,5.42-5.41c-0.36-0.47-0.58-0.94-0.95-1.2c-23.85-16.41-47.7-32.8-71.32-49.04c-0.5,0-0.66-0.02-0.81,0
			c-0.16,0.02-0.33,0.04-0.45,0.12c-23.07,15.57-46.14,31.14-69.2,46.71c-1.05,0.71-2.08,1.47-3.04,2.15
			c-0.1,1.72,1.22,2.31,2.11,3.13c9.14,8.49,18.32,16.95,27.49,25.42c1.76,1.62,3.51,3.26,5.58,5.19c-0.83,0.37-1.33,0.79-1.84,0.8
			c-4,0.1-8,0.14-11.99,0.16c-2.55,0.01-4.62-1.05-6.38-2.86c-3.34-3.44-6.71-6.86-10.09-10.27c-4.27-4.31-8.57-8.59-12.85-12.88
			c-2.17,0.39-3.66,1.64-5.24,2.64c-10.54,6.67-21.1,13.32-31.54,20.15c-3.36,2.2-6.78,3.37-10.8,3.15
			c-3.83-0.21-7.68-0.15-11.51-0.24c-0.74-0.02-1.47-0.16-2.45-0.28c0.57-1.66,1.85-2.11,2.83-2.77
			c9.02-6.08,18.07-12.11,27.11-18.15c6.65-4.45,13.3-8.89,19.94-13.35c1.04-0.7,2.02-1.5,3.34-2.5c-1.46-1.36-2.72-2.55-3.99-3.71
			c-23.87-21.79-47.83-43.48-71.59-65.39c-34.22-31.56-67.92-63.68-101.19-96.25c-40.36-39.51-80.08-79.65-118.5-121.06
			c-25.25-27.22-50.01-54.86-73.23-83.85c-9.2-11.49-18.14-23.18-26.13-35.56c-3.22-4.98-6.1-10.13-8.54-15.54
			c-2.21-4.91-2.03-9.31,1.33-13.88c14.88-20.24,30.28-40.08,46.01-59.66c41.7-51.88,84.93-102.49,128.58-152.74
			c71.46-82.26,144.14-163.42,217.55-243.94c1.18-1.29,2.33-2.61,3.62-4.05c-3.59-3.28-7.47-5.8-11.14-8.58
			c-3.7-2.8-7.45-5.54-11.17-8.3c-3.86-2.86-7.71-5.72-11.57-8.58c-3.73-2.76-7.47-5.51-11.18-8.29c-3.65-2.74-7.39-5.36-11.22-8.44
			c3.88-0.91,10.89-1.07,19.13-0.53c7.22,6.39,15.41,11.7,23.21,17.55c6.14,4.61,12.37,9.1,18.56,13.64
			c1.15,0.85,2.34,1.65,3.42,2.4c1.8-0.27,2.45-1.7,3.37-2.75c7.9-9.03,15.75-18.1,23.63-27.16c1.05-1.2,2.12-2.38,3.1-3.47
			c4.73-0.65,10.59-0.59,14.29,0.11c0.23,1.14-0.72,1.64-1.3,2.32c-0.62,0.73-1.31,1.4-1.97,2.1c-9.8,10.33-19.6,20.65-29.39,30.99
			c-1.08,1.15-2.08,2.37-2.99,3.41c0.09,0.45,0.09,0.61,0.15,0.74c0.07,0.14,0.17,0.28,0.29,0.38
			c23.69,18.53,47.38,37.05,71.09,55.56c0.37,0.29,0.83,0.46,1.23,0.67c3.82-2.25,70.2-54.15,73.08-57.2
			c-1.68-2.45-3.99-4.42-6.01-6.64c-1.94-2.13-3.95-4.19-5.93-6.28c-2.1-2.2-4.21-4.39-6.3-6.59c-1.99-2.09-3.96-4.18-5.94-6.27
			c-2.09-2.21-4.2-4.4-6.27-6.62c-1.93-2.06-4.02-4-5.86-6.34c3.42-0.94,9.55-1.09,15.05-0.49c2.7,3.23,5.21,6.34,7.83,9.34
			c6.11,6.99,12.27,13.93,18.42,20.88c0.94,1.06,1.95,2.06,3.14,3.32c1.85-1.17,3.66-2.16,5.32-3.37
			c11.62-8.5,23.22-17.02,34.78-25.61c1.77-1.31,3.24-3.02,4.91-4.6c6.75-0.53,15.95-0.38,19.69,0.42
			c-1.75,1.89-3.81,3.07-5.65,4.49c-1.78,1.36-3.59,2.68-5.39,4.02c-1.93,1.43-3.86,2.86-5.78,4.29c-1.8,1.33-3.59,2.67-5.39,4.01
			c-1.93,1.43-3.86,2.85-5.79,4.28c-1.93,1.43-3.86,2.86-5.78,4.29c-1.8,1.33-3.6,2.67-5.4,4c-1.93,1.43-3.86,2.86-5.78,4.29
			c-1.8,1.33-3.62,2.64-5.39,4.02c-1.87,1.45-4.03,2.57-5.66,4.66c1.09,1.27,2.1,2.49,3.16,3.66
			c68.92,75.51,137.12,151.68,204.34,228.71c44.81,51.36,89.19,103.08,132.18,155.98c18.67,22.97,37.07,46.15,54.48,70.09
			c4.4,6.05,3.63,3.53,3.68,11.38c0.04,6.4-0.05,12.81,0.04,19.21c0.03,2.34-0.59,4.29-1.9,6.25
			c-7.68,11.43-16.04,22.36-24.65,33.09c-23.06,28.7-47.62,56.1-72.64,83.1c-33.06,35.68-67.13,70.39-101.73,104.58
			c-61,60.3-123.65,118.84-187.42,176.18C597,949.9,595.11,951.62,592.64,953.86z M24.32,531.29c1.01,0.91,1.79,1.69,2.64,2.38
			c29.05,23.62,58.73,46.44,88.49,69.15c39.81,30.37,79.58,60.8,119.26,91.35c22.56,17.37,44.9,35.03,67.99,51.72
			c47.33,34.19,94.61,68.46,141.95,102.64c18.81,13.58,37.73,26.99,56.62,40.46c1.26,0.9,2.39,2.16,4.25,2.23
			c1.56-0.99,3.22-1.95,4.79-3.05c18.89-13.18,37.9-26.2,56.63-39.6c35-25.03,69.77-50.4,104.79-75.4
			c29.03-20.73,58.02-41.52,86.4-63.15c61.07-46.55,122.23-92.98,183.31-139.52c12.85-9.79,25.52-19.82,38.26-29.76
			c0.96-0.75,1.76-1.7,2.75-2.68c-0.88-0.91-1.5-1.63-2.2-2.27c-18.63-16.85-37.05-33.94-55.94-50.49
			c-56.32-49.34-112.82-98.47-169.25-147.69c-13.87-12.09-27.49-24.48-41.62-36.26c-30.96-25.82-62.19-51.32-93.28-76.99
			c-28.5-23.53-56.92-47.16-85.46-70.63c-10.26-8.43-20.78-16.54-31.21-24.75c-1.34-1.06-2.59-2.38-4.51-2.68
			c-1.43,1.09-2.85,2.12-4.21,3.23c-20.96,17.08-41.97,34.1-62.85,51.27c-31.51,25.91-62.88,52-94.41,77.89
			c-26.83,22.03-53.78,43.92-79.86,66.85c-24.27,21.35-48.58,42.64-72.88,63.94c-43.31,37.97-86.65,75.9-129.94,113.9
			c-9.26,8.13-18.33,16.46-27.47,24.72C26.33,529.04,25.43,530.12,24.32,531.29z M581.71,61.9c-1.07,0.74-1.99,1.33-2.85,2
			c-4.18,3.22-8.34,6.47-12.51,9.71c-17.55,13.64-35.11,27.27-52.65,40.94c-1.34,1.04-3,1.82-3.8,3.79c2.47,2.1,4.85,4.23,7.33,6.23
			c10.47,8.42,20.97,16.8,31.44,25.21c38.4,30.87,76.32,62.31,113.17,95.02c25.71,22.83,51.27,45.84,77.13,68.51
			c44.26,38.8,88.67,77.43,133.07,116.07c25.7,22.36,51.52,44.59,77.29,66.87c1.06,0.92,2.21,1.72,3.38,2.62
			c2.15-4.88,2.17-5.31-0.5-8.96c-3.31-4.51-6.57-9.07-10.1-13.41c-27.24-33.51-54.53-66.98-81.81-100.44
			c-49.34-60.51-100.72-119.26-153.24-177.01c-40.89-44.96-82.57-89.21-122.87-134.72C583.47,63.51,582.64,62.8,581.71,61.9z
			 M417.07,62.1c-1.13,1.23-2.31,2.51-3.48,3.79c-29.32,32.15-58.68,64.26-87.96,96.45c-23.15,25.44-46.26,50.91-69.28,76.47
			c-12.74,14.14-25.52,28.26-37.82,42.78c-23.89,28.19-47.55,56.58-71.15,85.01c-25.75,31.02-51.36,62.14-76.94,93.3
			c-8.52,10.38-17.1,20.73-24.78,31.78c-0.7,1-1.31,2.07-2.13,3.38c3.33,1.34,6.12,1.6,8.7-0.84c0.81-0.77,1.68-1.47,2.53-2.21
			c19.92-17.31,39.82-34.65,59.78-51.93c63.25-54.76,126.42-109.62,188.91-165.25c26.17-23.29,52.53-46.38,79.3-68.97
			c27.38-23.1,55.38-45.48,83.1-68.19c7.18-5.88,14.31-11.81,21.44-17.74c0.69-0.58,1.66-1.04,1.56-2.2
			C485.67,114.53,420.55,64.02,417.07,62.1z M586.97,947.75c1.36-1.23,2.56-2.25,3.7-3.34c12.45-11.97,24.84-24.02,37.35-35.93
			c34.86-33.2,69.8-66.33,104.67-99.53c32.56-31,64.32-62.79,95.52-95.16c40.52-42.04,80.28-84.79,120.15-127.45
			c3.71-3.97,7.06-8.27,10.54-12.45c0.27-0.32,0.27-0.87,0.57-1.94c-0.72-0.71-1.6-1.59-2.06-2.04c-3.12-0.04-4.67,1.43-6.32,2.67
			c-11.9,8.92-23.78,17.87-35.69,26.79c-68.87,51.6-137.54,103.46-205.73,155.96c-23.57,18.15-47,36.51-70.99,54.1
			c-31.08,22.79-62.65,44.92-94.01,67.33c-8.72,6.23-17.46,12.43-26.17,18.67c-1.13,0.81-2.13,1.78-3.67,3.08
			C539.07,915.07,562.9,931.38,586.97,947.75z M47.62,560.74c0,0.45-0.11,0.8,0.02,1.01c4.34,7.67,9.04,15.05,15.11,21.54
			c22.74,24.28,45.37,48.67,68.06,73.01c34.36,36.85,69.15,73.29,104.64,109.06c27.38,27.6,55.45,54.48,83.44,81.44
			c33.29,32.07,66.62,64.09,99.94,96.13c1.37,1.32,2.77,2.59,4.25,3.98c0.98-0.55,1.83-0.97,2.61-1.49
			c22.42-15.09,44.84-30.18,67.25-45.3c0.73-0.49,1.8-0.81,1.71-2.46c-1.89-1.5-3.95-3.25-6.13-4.83
			c-5.06-3.65-10.15-7.25-15.27-10.82c-49.64-34.53-98.27-70.44-146.01-107.56c-28.91-22.49-57.6-45.27-86.65-67.57
			c-52.53-40.31-105.26-80.36-157.93-120.5c-10.56-8.04-21.21-15.96-31.85-23.91C49.87,561.77,49.02,560.76,47.62,560.74z"/>
		<path d="M504.22,644.6c-1.12,0-2.25-0.1-3.35,0.02c-9.7,1.01-19.12-0.68-28.48-2.91c-11.37-2.7-22.57-6.01-33.37-10.44
			c-24.99-10.26-45.14-26.35-58.84-49.97c-9.6-16.55-17.15-33.91-21.47-52.63c-1.77-7.66-2.66-15.43-3.31-23.24
			c-0.49-5.9-0.69-11.81-1.2-17.71c-1.79-20.91,3.11-40.31,13.21-58.5c2.95-5.31,6.09-10.52,9.34-15.64
			c4.63-7.29,9.45-14.45,14.19-21.67c5.06-7.71,11.44-14.16,18.8-19.66c3.84-2.87,7.71-5.7,11.58-8.55
			c5.93-4.37,12.12-8.31,18.73-11.6c4.72-2.35,9.31-4.95,14.01-7.36c13.48-6.92,27.7-11.58,42.74-13.58
			c11.48-1.53,22.96-1.23,34.41,0.52c14.11,2.15,27.94,5.42,41.15,10.87c7.22,2.98,14.21,6.57,21.18,10.13
			c5.55,2.83,10.91,6.03,16.35,9.08c6.47,3.63,12.18,8.24,17.23,13.65c9.17,9.83,17.81,20.13,25.92,30.83
			c10.14,13.37,16.23,28.52,19.11,45.03c1.4,8.05,2.06,16.17,2.47,24.32c0.5,9.96-0.7,19.78-2.62,29.54
			c-3.99,20.3-9.96,39.96-18.1,59c-7.44,17.4-18.71,31.92-32.31,44.8c-5.49,5.2-11.77,9.37-18.52,12.74
			c-20.28,10.14-41.44,17.74-63.97,20.87c-9.64,1.34-19.42,1.72-29.14,2.48c-1.9,0.15-3.83,0.02-5.75,0.02
			C504.22,644.89,504.22,644.74,504.22,644.6z M662.77,474.47c-0.22-4.15-0.34-8.31-0.68-12.46c-0.48-5.89-0.78-11.84-2.53-17.54
			c-2.39-7.79-4.93-15.53-7.48-23.27c-0.44-1.35-1.09-2.68-1.86-3.88c-4.74-7.42-9.71-14.67-15.37-21.43
			c-1.43-1.71-3.01-3.33-4.72-4.77c-5.5-4.63-11-9.29-16.68-13.7c-8.5-6.59-17.69-12.08-27.6-16.31c-2.2-0.94-4.39-1.95-6.49-3.09
			c-12.32-6.67-25.55-10.9-39-14.54c-9.81-2.66-19.77-3.71-29.92-3.04c-8.63,0.58-17.14,1.97-25.61,3.66
			c-9.63,1.92-18.77,5.15-27.54,9.55c-14.85,7.45-28.02,17.27-40.31,28.33c-3.19,2.87-5.86,6.32-8.78,9.5
			c-1.19,1.29-2.26,2.73-3.63,3.79c-5.38,4.16-9.77,9.21-13.51,14.83c-3.01,4.53-5.92,9.12-8.77,13.75
			c-4.98,8.08-8.75,16.71-11.41,25.81c-1.48,5.06-2.8,10.17-3.99,15.31c-1.71,7.37-2.31,14.86-1.4,22.4
			c1.03,8.57,2.01,17.15,3.38,25.67c1.45,9.02,3.99,17.76,8.06,26.02c1.62,3.29,2.93,6.74,4.31,10.15
			c4.4,10.83,9.42,21.35,15.21,31.51c6.09,10.69,14.07,19.78,23.48,27.65c6.08,5.08,12.84,8.94,20.41,11.36
			c2.28,0.73,4.52,1.6,6.75,2.47c6.41,2.48,12.8,5.01,19.21,7.5c14.23,5.52,28.92,6.53,43.89,4.22c8.85-1.36,17.65-2.97,26.48-4.46
			c23.09-3.9,44.73-11.87,65.23-23.12c6.13-3.36,11.3-7.71,15.39-13.45c2.5-3.5,5.27-6.87,8.31-9.89c3.79-3.76,7.13-7.82,9.53-12.55
			c2.89-5.7,5.76-11.43,8.16-17.34c5.41-13.34,9.9-27.02,14.01-40.81C660.94,500,663.02,487.39,662.77,474.47z"/>
	</g>
</g>
</svg>
