<?xml version="1.0" encoding="utf-8"?>
<!-- Generator: Adobe Illustrator 24.3.0, SVG Export Plug-In . SVG Version: 6.00 Build 0)  -->
<svg version="1.1" id="Calque_1" xmlns="http://www.w3.org/2000/svg" xmlns:xlink="http://www.w3.org/1999/xlink" x="0px" y="0px"
	 viewBox="0 0 2400 2400" style="enable-background:new 0 0 2400 2400;" xml:space="preserve">
<g>
	<g>
		<path d="M1002.18,1466.77c-21.13-11.83-42.3-23.57-63.37-35.49c-87.7-49.64-176.96-96.68-260.51-153.31
			c-70.2-47.58-139.14-96.95-198.06-158.63c-22.19-23.22-43.71-47.1-65.06-71.1c-14.4-16.19-15.21-27.28,7.97-38.66
			c53.45-26.26,109.06-45.08,169.25-47.37c0.59-0.02,1.17-0.38,3.21-1.08c-8.96-7.87-17.34-15.31-25.8-22.64
			c-34.54-29.91-65.07-63.56-93.47-99.28c-37.22-46.81-69.01-96.91-90.51-152.87c-8.19-21.32-13.81-43.68-19.68-65.81
			c-3.44-12.97-0.67-15.29,12.64-16.26c13.3-0.97,26.64-4.45,39.79-3.72c24.69,1.37,49.25,4.99,74.24,7.72
			c-0.36-3.59-1.57-9.32-1.42-15.02c2.12-82.02,19.04-160.79,54.31-235.02c14.64-30.81,35.77-57.67,58.68-82.93
			c2.65-2.92,6.1-5.45,9.66-7.12c3.63-1.7,8.62-6.12,10.86,2.06c0.2,0.72,2.05,1.15,3.21,1.41c42.11,9.48,80.29,28.16,116.43,51.01
			c45.5,28.77,91.08,57.51,135.22,88.29c17.78,12.4,31.82,30.16,47.35,45.28c13.93-31.13,43.36-47.88,73.12-64.23
			c6.16-3.38,10.17-1.71,15.1,3.76c35.55,39.42,46.87,89.09,59.01,138.29c14.02,56.8,20.09,114.62,16.17,173.03
			c-2.28,34.01-7.33,67.84-11.18,101.75c-0.82,7.25-1.81,14.48-2.93,23.35c9.67-15.2,18.42-29.05,27.28-42.83
			c27.04-42.04,60.71-77.33,104.28-102.61c6.36-3.69,9.1-5.76,12.68,4.27c14.48,40.48,25.58,81.81,34.03,123.84
			c3.84,19.08,6.92,38.58,7.49,57.98c1.01,34.95,1.51,70.07-0.82,104.92c-2.43,36.45-8.06,72.71-12.98,108.96
			c-4.3,31.62-9.36,63.15-14.44,94.66c-10.55,65.5-21.34,130.96-32.04,196.43c-0.39,2.39-0.97,4.75-0.22,7.9
			c3.21-5.2,6.25-10.51,9.65-15.59c44.36-66.2,86.97-133.67,133.79-198.08c31.03-42.69,65.99-82.94,107.53-116.54
			c9.17-7.42,12.83-7.71,17.99,2.77c8.31,16.9,15.23,34.47,22.84,51.99c8.22-6.55,17.54-15.25,28.05-22.13
			c39-25.52,80.35-46.1,126.03-56.88c39.48-9.31,78.99-18.5,118.53-27.56c5.72-1.31,11.64-1.91,17.51-2.32
			c5.5-0.39,7.78,2.44,7.2,8.13c-0.91,8.83-1.94,17.72-1.87,26.58c0.22,26.49,2.7,53.08,0.98,79.42
			c-1.75,26.8-6.98,53.43-11.56,79.98c-3.3,19.17-6.76,38.48-12.57,56.98c-4.02,12.82-12.16,24.35-17.98,35.55
			c14.55,6.07,29.44,12.52,44.53,18.48c12.23,4.83,19.15,14.92,25.31,25.41c1.51,2.56,0.15,8.39-1.92,11.21
			c-13.41,18.23-25.81,37.59-41.53,53.66c-28.14,28.78-59.65,53.95-94.67,74.15c-14.46,8.34-29.81,15.14-45.21,22.86
			c15.64,3.13,31.1,6.32,46.6,9.31c19.11,3.69,37.21,10.12,53.71,20.45c3.13,1.96,6.23,5.88,6.89,9.36
			c0.81,4.25-2.54,5.86-7.25,7.73c-6.88,2.73-12.26,9.35-18.12,14.48c-41.98,36.77-89.71,61.83-144.64,73.41
			c-35.97,7.59-72.1,12.85-108.81,13.97c-26.19,0.8-52.39,1.32-78.59,1.96c-23.37,0.57-46.74,1.4-70.11,1.58
			c-8.56,0.06-17.12-1.42-26.9-0.31c7.76,8.68,15.03,17.86,23.37,25.95c36.96,35.84,73.05,72.7,111.69,106.65
			c43.14,37.91,90.14,70.62,144.63,91.21c14.17,5.36,28.21,12.07,40.77,20.47c22.06,14.75,46.39,20.53,72.08,22.4
			c22.33,1.63,44.81,1.71,67.04,4.13c26.45,2.88,52.79,7.09,79.03,11.6c13.28,2.28,14.25,6.41,7.31,18.17
			c-17.37,29.42-33.83,59.41-52,88.33c-11.95,19.02-29.81,30.92-53.19,31.02c-26.19,0.12-52.41-0.27-78.58-1.4
			c-54.27-2.36-108.17-7.85-161.92-16.27c-66.57-10.42-132.58-23.18-197.24-42.01c-64.07-18.66-127.69-38.89-191.37-58.87
			c-6.97-2.19-12.28-2.68-17.61,2.64c-6.42,6.4-11.53,3.77-15.86-2.72c-0.52-0.78-1.21-1.52-1.46-2.38
			c-4.79-16.46-18.1-20.39-32.63-25.77c-19.92-7.37-34.35-5.11-51.92,7.76c-33.64,24.64-70.77,44.06-111.12,56.16
			c-25.55,7.66-51.75,9.92-78.36,8.62c-8.7-0.42-12.02-5.95-13.36-13.02c-3.47-18.31-2.97-36.47,3.03-54.35
			c3.05-9.08,5.42-18.38,8.43-28.73c-13.08,0.66-25.46,2.41-37.68,1.67c-31.29-1.91-62.68-3.63-93.72-7.78
			c-59.11-7.9-113.95-30.17-167.19-55.67c-23.95-11.47-45.58-27.84-67.93-42.5c-7.36-4.83-9.39-12.32-6.41-21.14
			c7.63-22.58,22.26-40.93,35.99-59.76c33.83-46.42,78.93-80.25,126.81-110.41c23.55-14.83,48.94-26.74,73.52-39.98
			c-17.53-12.49-31.16-30.27-41.53-50.25c-5.03-9.68-7.35-20.85-10.08-31.55c-0.46-1.81,2.75-6.01,5.07-6.83
			c14.29-5.09,28.64-10.16,43.28-14.05c32.83-8.72,66.29-13.35,100.33-13.68c23.68-0.23,47.39-1.89,71.04-1.29
			c38.17,0.98,76.15,4.34,113.62,12.62c22.67,5.01,45.64,8.67,68.47,12.93C1001.65,1467.36,1001.92,1467.06,1002.18,1466.77z
			 M1170.93,1851.51c-2.39,2.15-5.25,3.96-7.08,6.51c-11.77,16.42-22.76,33.44-35.11,49.4c-9.56,12.36-20.74,23.47-30.81,34.69
			c-0.51-0.18,1.15,0.56,2.89,1.02c50.36,13.54,100.71,27.12,151.1,40.55c33.28,8.87,66.36,18.71,99.99,26
			c43.6,9.45,87.48,18.02,131.58,24.7c49.3,7.47,98.88,13.45,148.53,18.04c30.96,2.87,62.28,1.88,93.43,2.79
			c20.18,0.58,35.74-9.09,46.74-24.34c12.68-17.59,23.14-36.83,34.06-55.65c6.78-11.69,12.61-23.92,20.01-38.1
			c-31.71-3.97-61.36-8.36-91.16-11.22c-24.43-2.34-49.17-1.71-73.51-4.6c-14.48-1.71-28.91-6.53-42.52-12.03
			c-14.91-6.04-28.74-14.71-43.24-21.82c-28.16-13.81-57.64-25.36-84.44-41.41c-40.45-24.22-76.31-54.98-109.27-88.7
			c-32.46-33.21-64.07-67.26-95.64-101.33c-7.38-7.96-13.11-17.45-21.21-28.42c7.15,0,11.39-0.27,15.6,0.05
			c13,0.98,26.02,3.42,38.98,3.06c40.43-1.12,80.81-4.09,121.24-4.78c39.61-0.68,78.44-6.3,117.34-13.09
			c63.49-11.08,118.33-40.03,169.6-78.71c-1.6-1.14-2.76-2.04-3.99-2.83c-25.2-16.12-53.97-21.77-82.6-27.32
			c-11.89-2.3-23.79-6.34-36.58-1.2c-7.24,2.91-9.95-5.13-11.55-10.53c-0.58-1.95,2.81-5.73,5.2-7.7c2.29-1.88,5.67-2.38,8.49-3.67
			c21.72-9.93,44.08-18.7,64.98-30.14c37.85-20.71,71.45-47.69,103.68-76.17c12.67-11.2,23.37-24.62,34.23-36.25
			c-24.31-28.89-55.61-39.68-90.29-44.55c3.46-4.48,5.2-7.49,7.62-9.77c19.36-18.31,29.24-41.23,33.1-67.15
			c1.1-7.35,2.13-14.72,3.19-22.08c5.93-41.4,12.59-82.72,17.44-124.25c2.07-17.72,0.35-35.88,0.35-53.77
			c-6.32,1.29-13.61,2.67-20.84,4.28c-17.83,3.97-35.69,7.85-53.45,12.12c-35.81,8.61-72.22,15.42-107.16,26.76
			c-36.07,11.72-70.49,28.31-99.75,53.51c-2.73,2.35-4.36,6.03-6.29,9.23c-1.75,2.9-3.2,5.98-4.79,8.98
			c-1.96-3.13-5.29-6.1-5.66-9.41c-2.44-21.66-6.94-42.67-16.69-62.66c-1.08,0.56-1.96,0.83-2.6,1.38
			c-44.52,38.56-83.36,82.54-118.75,129.3c-27.96,36.94-53.33,75.88-79.16,114.4c-24.57,36.63-48.23,73.87-72.37,110.79
			c-0.89,1.36-2.78,3.13-3.94,2.96c-1.36-0.2-3.33-2.23-3.48-3.63c-0.7-6.74-2.01-13.69-1.05-20.27
			c5.89-40.17,12.21-80.29,18.64-120.38c8.55-53.24,18.22-106.32,25.78-159.71c8.52-60.18,20.1-120.1,20.54-181.19
			c0.22-30.57,1.86-61.45-1.72-91.64c-4.44-37.43-13.33-74.36-20.91-111.38c-2.49-12.18-6.9-23.97-10.37-35.7
			c-36.42,20.84-67.75,45.8-91.82,78.78c-23.63,32.38-50.42,63.07-59.59,104.51c-3.15-5.93-5.87-11.63-5.34-17.01
			c2.43-24.7,6-49.28,8.71-73.95c3.79-34.52,8.42-69.02,10.31-103.66c1.18-21.58-1.73-43.43-3.32-65.12
			c-3.82-52-16.59-102.17-31.21-152.01c-7.17-24.44-18.62-46.3-33.27-66.11c-5.95,3.13-11.44,5.38-16.24,8.66
			c-17.67,12.08-35.54,23.95-52.42,37.06c-6.89,5.35-12.07,12.99-11.64,23.38c0.2,4.91-3.25,9.97-5.04,14.96
			c-3.71-2.9-7.87-5.38-11.07-8.77c-14.69-15.57-27.09-34.17-44.04-46.58c-42.69-31.25-87.53-59.53-131.24-89.41
			c-31.96-21.85-64.93-41.75-100.89-56.36c-15.66-6.36-15.35-5.85-26.4,5.88c-42.6,45.26-72.49,97.5-89.26,157.51
			c-14.32,51.24-27.52,102.53-26.91,156.3c0.07,6,0.02,10.97,6.34,15.11c2.33,1.52,0.79,9.73-0.03,14.71
			c-0.18,1.08-5.27,2.62-7.39,1.89c-15.47-5.29-30.51-11.95-46.17-16.55c-22.63-6.64-45.97-5.71-69.94-4.5
			c1.42,8.63,2.21,16.4,4.02,23.93c13.62,56.61,38.8,108.05,71.06,156.13c41.58,61.96,90.85,117.18,147.67,165.59
			c2.08,1.77,5.47,2.49,8.34,2.77c5.82,0.58,11.93,0.55,11.43,8.77c-0.44,7.14-3.59,11.35-11.86,10.94
			c-49.45-2.46-97.05,7.69-143.91,22.07c-16.43,5.04-32.42,11.53-49.64,17.73c2.73,4.56,4.06,7.78,6.23,10.25
			c10.71,12.15,21.32,24.42,32.56,36.07c27.5,28.48,53.93,58.21,83.33,84.62c61.53,55.26,129.06,102.89,198.84,147.1
			c52.08,32.99,105.26,64.27,158.24,95.82c47.07,28.03,94.52,55.42,141.85,83.01c2.92,1.7,6.52,4.22,9.34,3.72
			c7.45-1.33,8.53,5.68,11.49,8.84c1.96,2.1-0.82,8.63-1.41,12.74c-12.99-4.67-23.76-9.68-35.08-12.41
			c-68.27-16.5-137.19-29.34-207.61-31.35c-65.44-1.87-130.65,0.4-194.86,15.44c-8.21,1.92-9.61,5.49-7.53,12.2
			c8.42,27.14,23.89,49.65,45.4,68.03c1.59,1.36,4.27,1.65,6.5,1.98c3.41,0.51,6.89,0.62,10.34,0.9c-0.84,4.1-0.6,8.96-2.81,12.09
			c-2.51,3.56-6.91,6.2-11.02,8.12c-9.28,4.35-19.06,7.63-28.33,12c-55.16,25.99-104.65,60.47-148.42,102.69
			c-22.83,22.02-42.47,47.05-56.71,75.87c-3.59,7.27-1.85,11.32,4.47,16.16c30.17,23.13,64.08,38.81,98.85,53.64
			c62.27,26.57,126.94,42.63,194.11,48.95c19.51,1.84,39.21,1.69,58.83,2.07c3.05,0.06,6.1-2.08,9.24-2.84
			c2.78-0.68,5.68-0.86,8.53-1.26c0.17,2.88,0.79,5.83,0.38,8.63c-0.4,2.7-1.95,5.22-2.83,7.87c-7.05,21.2-15.71,42.02-14.1,65.14
			c0.86,12.29,2.21,14.02,14.36,13.99c34.33-0.08,67.13-7.29,98.25-21.82c52.94-24.7,101.3-55.93,141.46-98.98
			c2.76-2.96,7.91-3.69,14.46-6.56c-5.67,34.53,5.48,61.43,21.55,89.55c14.55-13.36,29.52-24.45,41.22-38.31
			c56.3-66.74,93.14-142.21,99-230.71c0.37-5.61-2.19-11.38-2.93-17.13c-0.44-3.41-1.27-9.1,0.28-10.01
			c4.75-2.79,9.24-1.18,12.27,4.34c4.34,7.89,9.09,15.59,14.14,23.04c47.41,69.94,101.96,133.82,163.54,191.65
			c20.92,19.65,42.18,38.98,67.14,54.58c-3.92,0.43-8.22,0.71-11.44-1.01c-8.22-4.39-15.92-9.74-23.91-14.58
			c-2.59-1.57-5.32-3.48-8.19-3.95c-27.85-4.56-55.7-9.26-83.65-13.11c-43.36-5.98-86.93-10.69-129.15-22.92
			c-14.15-4.1-27.99-9.26-42-13.98c3.25-0.01,6.61-0.54,9.75,0.05c35.6,6.7,71.06,14.2,106.77,20.21
			c27.18,4.58,54.68,7.25,82.01,10.93c13.26,1.79,26.48,3.95,39.71,5.95c-72.58-63.57-135.16-134.76-189.52-216.49
			c-0.44,6.57-0.52,10.51-0.99,14.4c-2.19,18.45-3.68,37.03-6.92,55.3c-6.32,35.6-21.89,67.8-38.35,99.61
			C1171.69,1844.32,1171.66,1848.1,1170.93,1851.51z M1005.92,1908.25c15.33,2.99,28.56,5.56,41.95,8.17
			c-3.22-12.39-6.15-23.66-9.29-35.78C1027.91,1889.67,1017.62,1898.36,1005.92,1908.25z"/>
		<path d="M676.68,523.77c6.95,17.06,14.23,33.99,20.8,51.19c44.58,116.56,88.38,233.43,133.77,349.67
			c23.95,61.33,48.69,122.51,76.58,182.11c26.08,55.72,55.56,109.96,85.72,163.63c60.34,107.4,131.69,207.64,203.77,307.32
			c10.94,15.13,22.79,29.59,34.02,44.51c6.69,8.9,12.99,18.09,19.46,27.15c-0.77,0.68-1.54,1.36-2.31,2.05
			c-5.26-5.57-11.16-10.67-15.68-16.78c-39.59-53.58-79.43-106.98-118.23-161.12c-51.17-71.42-97.97-145.7-141.35-222.1
			c-44.6-78.56-84-159.68-116.54-243.95c-52.52-136.02-104.27-272.34-156.13-408.61c-8.93-23.46-16.82-47.32-25.14-71.02
			c-0.38-1.08-0.15-2.38-0.2-3.57C675.71,524.08,676.2,523.92,676.68,523.77z"/>
	</g>
</g>
</svg>
