<?xml version="1.0" encoding="utf-8"?>
<!-- Generator: Adobe Illustrator 24.3.0, SVG Export Plug-In . SVG Version: 6.00 Build 0)  -->
<svg version="1.1" id="Calque_1" xmlns="http://www.w3.org/2000/svg" xmlns:xlink="http://www.w3.org/1999/xlink" x="0px" y="0px"
	 viewBox="0 0 1000 1000" style="enable-background:new 0 0 1000 1000;" xml:space="preserve">
<path d="M244.23,597.03c-4.53,0.46-7.88-1.95-11.2-4.55c-14.51-11.32-29.06-22.56-44.54-32.55c-7.53-4.86-14.99-9.82-22.46-14.75
	c-8.28-5.47-16.25-11.36-24.09-17.45c-11.49-8.94-23.15-17.66-34.65-26.58c-5.05-3.92-9.96-8.03-14.79-12.22
	c-4.37-3.78-4.24-4.4,0.14-7.98c17.85-14.59,36.43-28.21,55.35-41.35c42.84-29.74,85.71-59.42,128.66-88.99
	c12.92-8.9,25.48-18.26,37.9-27.82c30.18-23.24,61.38-45.05,92.7-66.7c12.5-8.64,25.17-17.03,37.59-25.79
	c12.28-8.67,24.3-17.71,36.52-26.47c3.5-2.51,7.25-4.66,10.91-6.94c3.1-1.93,6.37-1.9,9.68-0.65c1.34,0.51,2.68,1.1,3.9,1.85
	c4.49,2.77,9.15,5.32,13.34,8.5c17.46,13.26,35.4,25.85,53.58,38.09c37.16,25.03,73.59,51.07,109.22,78.24
	c16.16,12.32,32.91,23.82,49.67,35.31c19.92,13.67,39.75,27.45,59.6,41.22c13.41,9.3,26.72,18.74,40.16,27.98
	c24.13,16.6,47.73,33.9,70.54,52.29c1.74,1.4,3.65,2.61,5.31,4.1c1.64,1.47,3.06,3.19,4.69,4.91c0.59,3.19-0.77,5.75-3.27,7.84
	c-1.1,0.92-2.28,1.75-3.42,2.64c-23.51,18.24-47.4,35.98-71.53,53.39c-6.28,4.53-5.11,2.98-5.8,10.06
	c-0.81,8.26-1.31,16.53-0.81,24.9c0.7,11.65,0.51,23.34,0.72,35.02c0.14,7.84,0.32,15.67,0.5,23.51c0.03,1.1,0.2,2.2,0.31,3.4
	c1.34,0.7,2.57,1.42,3.87,2.01c14.49,6.59,18.83,22.73,16.86,34.04c-0.41,2.35-0.71,4.74-0.77,7.12
	c-0.32,14.23-0.49,28.47-0.85,42.7c-0.19,7.35-0.53,14.71-1.11,22.04c-0.3,3.8-1.28,7.56-1.98,11.33c-0.09,0.46-0.33,0.89-0.54,1.32
	c-0.45,0.93-1.7,1.24-2.4,0.48c-0.74-0.81-1.33-1.76-1.9-2.69c-0.73-1.2-0.76-2.82-2.45-3.76c-0.81,1.09-1.6,2.25-2.49,3.34
	c-2.66,3.25-5.89,3.76-9.25,1.26c-1.9-1.41-3.56-3.15-5.44-4.85c-1.13,0.8-2.16,1.53-3.19,2.26c-4.46,3.14-7.05,2.87-10.85-1.22
	c-1.63-1.75-3.18-3.57-4.86-5.47c-2.77,1.62-3.02,5.48-6.33,6.53c-2.88-1.32-4.22-3.59-4.2-6.78c0.06-6.88-0.11-13.76,0.16-20.62
	c0.57-14.06,1.35-28.12,2.08-42.17c0.08-1.59,0.45-3.17,0.57-4.76c0.22-2.87,0.7-5.77,0.45-8.6c-0.44-5.04,0.46-9.87,1.46-14.73
	c0.88-4.27,3.07-7.7,6.39-10.42c3.72-3.06,7.71-5.7,12.3-7.33c1.65-0.59,3.26-1.27,5.02-1.96c0.13-1.18,0.33-2.26,0.35-3.35
	c0.12-8.96,0.31-17.92,0.26-26.87c-0.02-4.79-0.55-9.58-0.68-14.37c-0.31-11.82-1.34-23.65-0.07-35.48
	c0.14-1.27,0.14-2.55,0.15-3.83c0-0.27-0.27-0.54-0.58-1.1c-0.93,0.44-1.95,0.79-2.82,1.35c-14.15,9.07-27.97,18.61-41.1,29.11
	c-1.62,1.3-3.27,2.56-4.92,3.84c-4.69,3.64-4.73,3.66-10.61,4.34c-0.18,0.8-0.49,1.68-0.56,2.59c-0.14,1.75-0.2,3.51-0.21,5.27
	c-0.11,18.57-1.58,37.07-2.39,55.61c-0.18,3.99-0.31,7.99-0.29,11.99c0.02,3.88-0.45,7.66-1.58,11.36
	c-1.92,6.28-3.4,12.64-4.56,19.11c-0.62,3.43-1.75,6.83-3.11,10.05c-2.89,6.86-7.79,12.01-14.26,15.69
	c-12.71,7.21-25.89,13.23-40.24,16.49c-13.09,2.97-26.14,6.15-39.4,8.35c-14.71,2.44-29.47,3.61-44.4,3.73
	c-28,0.22-55.99,0.01-83.98-0.49c-20.15-0.36-40.3-0.88-60.44-1.62c-8.62-0.32-17.2-1.47-25.82-2.12
	c-8.29-0.62-16.59-1.16-24.89-1.6c-15.01-0.8-30.06-1.19-45.04-2.35c-18.24-1.41-36.02-5.43-53.49-10.81
	c-7.49-2.3-14.94-4.72-22.02-8.13c-11.94-5.75-22.61-13.26-31.66-22.97c-3.72-3.99-6.89-8.39-9.56-13.17
	c-2.42-4.33-3.56-8.86-2.78-13.83c0.22-1.41,0.25-2.89,0.08-4.3c-1.03-8.6-0.68-17.25-1.05-25.88c-0.5-11.66-1.42-23.3-2.05-34.96
	c-0.33-6.06-0.42-12.14-0.65-18.21C244.79,600.35,244.97,598.74,244.23,597.03z M901.19,491.61c-1.56-2.86-3.84-4.35-6.03-5.92
	c-20.29-14.52-40.63-28.98-60.87-43.58c-57.72-41.66-115.67-82.99-174.84-122.59c-22.6-15.12-45.01-30.52-67.19-46.26
	c-19.17-13.61-37.99-27.72-56.76-41.89c-10.38-7.84-21.58-14.3-32.72-20.89c-3.19-1.89-6.36-1.87-9.52,0.09
	c-0.54,0.34-1.08,0.69-1.62,1.03c-4.33,2.72-8.62,5.52-13.01,8.15c-8.38,5.02-16.47,10.46-24.25,16.37
	c-8.54,6.48-17.06,12.98-25.62,19.43c-24.41,18.39-49.64,35.63-74.91,52.8c-29.63,20.14-59.32,40.2-89.01,60.26
	c-20.55,13.89-40.33,28.85-60.43,43.36c-30.48,22-61.15,43.74-91.72,65.62c-2.99,2.14-5.84,4.48-8.72,6.76
	c-0.69,0.54-1.24,1.25-2.07,2.09c2.36,1.7,4.38,3.24,6.49,4.66c1.45,0.98,2.94,1.97,4.55,2.66c7.12,3.04,13.43,7.39,19.6,11.98
	c15.79,11.74,31.56,23.5,47.45,35.1c16.53,12.08,33.24,23.91,48.79,37.29c3.87,3.33,8.22,6.09,12.37,9.08
	c0.61,0.44,1.35,0.69,2.4,1.2c0-1.03,0.03-1.63-0.01-2.22c-0.21-3.35-0.57-6.69-0.63-10.04c-0.17-9.6-0.27-19.19-0.3-28.79
	c-0.02-5.59,0.01-11.19,0.29-16.78c0.25-4.99,1.37-9.84,4.06-14.15c3.17-5.07,7.06-9.52,12.05-12.87
	c8.25-5.53,16.83-10.46,26.11-14.13c12.81-5.07,25.94-9.12,39.32-12.35c32.49-7.83,65.17-14.74,98.28-19.5
	c14.9-2.14,29.86-3.51,44.87-4.44c12.62-0.78,25.25-0.94,37.89-0.59c17.75,0.48,35.49,0.63,53.2,2.27
	c12.9,1.2,25.79,2.35,38.52,4.92c16.61,3.36,33.17,6.91,49.46,11.67c7.51,2.19,15.1,4.16,22.63,6.28c2.15,0.61,4.3,1.28,6.34,2.16
	c10.43,4.47,20.86,8.96,31.23,13.58c4.52,2.02,8.93,4.3,13.31,6.62c9.06,4.8,17.7,10.28,25.85,16.51
	c4.09,3.12,7.86,6.56,10.73,10.89c2.89,4.36,4.46,8.98,4.46,14.38c0.02,15.36-0.58,30.71-1.02,46.05c-0.04,1.54-0.45,3.14,0.25,4.59
	c1.45,0.35,2.2-0.64,3.06-1.26c3.51-2.52,6.98-5.08,10.46-7.65c6.69-4.95,13.42-9.83,19.35-15.72c1.69-1.68,3.68-3.08,5.62-4.48
	c18.02-13.03,36.08-26,54.07-39.06c5.43-3.94,10.77-8.04,16-12.24c6.01-4.84,12.35-9.1,19.4-12.28
	C892.97,497.76,896.95,494.82,901.19,491.61z M258.5,670.87c3.17-1.25,5.86-2.9,8.41-4.8c6.98-5.2,14.62-9.15,22.71-12.29
	c15.68-6.09,31.8-10.72,48.17-14.48c24.93-5.72,50-10.8,75.24-14.96c10.72-1.77,21.53-3.03,32.31-4.37
	c4.91-0.61,9.87-0.94,14.82-1.24c8.3-0.5,16.61-1.24,24.91-1.23c16.79,0.02,33.58,0.46,50.37,0.78c5.59,0.11,11.21,0.15,16.77,0.66
	c9.87,0.91,19.73,2.01,29.55,3.29c7.13,0.93,14.29,1.9,21.28,3.49c14.33,3.27,28.55,7.04,42.85,10.48
	c10.13,2.44,19.97,5.7,29.55,9.79c5.73,2.45,11.49,4.85,17.23,7.29c13.99,5.95,27.52,12.85,41.08,19.7
	c1.85,0.93,3.75,1.84,5.72,2.44c3.41,1.04,5.31-0.25,5.6-3.75c0.41-4.94,0.81-9.89,0.95-14.84c0.3-10.23,0.4-20.47,0.63-30.7
	c0.5-22.06,1.06-44.13,1.52-66.19c0.06-2.86-0.23-5.74-0.47-8.6c-0.21-2.55-0.62-5.08-0.85-7.62c-0.45-4.95-1.24-9.83-2.82-14.56
	c-1.31-3.92-3.51-7.17-7.09-9.35c-3-1.83-5.9-3.88-9.06-5.38c-14.73-6.99-29.51-13.88-44.33-20.67c-6.26-2.87-12.78-5.06-19.54-6.48
	c-10.17-2.13-20.33-4.25-30.51-6.36c-6.57-1.36-13.12-2.89-19.73-3.96c-10.1-1.64-20.24-3.04-30.38-4.39
	c-10.46-1.4-20.89-2.98-31.46-3.44c-21.42-0.93-42.86-0.76-64.29-0.58c-11.03,0.09-22.07,0.45-33.08,1.16
	c-16.92,1.08-33.71,3.48-50.48,5.95c-7.75,1.14-15.47,2.51-23.23,3.5c-11.76,1.5-23.38,3.63-34.73,7.07
	c-19.89,6.02-39.75,12.1-59.62,18.19c-2.44,0.75-4.85,1.62-7.23,2.56c-4.93,1.95-9.57,4.42-13.75,7.73
	c-5.95,4.71-9.33,10.75-10.03,18.39c-0.79,8.62-1,17.23-0.54,25.88c0.6,11.5,1.14,23.01,1.39,34.52
	c0.46,21.59,0.68,43.18,1.01,64.77C257.39,662.37,257.67,666.49,258.5,670.87z M513.11,630.13c0,0.09,0,0.18,0,0.27
	c-1.6,0-3.2-0.04-4.79,0.01c-13.58,0.38-27.18,0.54-40.75,1.23c-19.32,0.98-38.68,1.63-57.91,3.93c-8.25,0.99-16.52,2.01-24.69,3.47
	c-7.86,1.41-15.62,3.36-23.41,5.14c-14.96,3.42-30.05,6.22-44.81,10.51c-4.46,1.3-8.91,2.57-13.06,4.69
	c-7.55,3.86-15.1,7.7-22.62,11.61c-1.41,0.73-2.78,1.61-4.01,2.61c-4.22,3.43-8.45,6.86-12.52,10.46c-1.4,1.24-2.51,2.89-3.47,4.51
	c-1.2,2.02-1.42,4.39-0.5,6.49c2.05,4.68,4.14,9.39,8.15,12.85c5.71,4.91,11.48,9.72,18.83,12.09c1.21,0.39,2.35,1.01,3.54,1.48
	c10.4,4.13,20.69,8.63,31.61,11.2c7.15,1.69,14.41,2.93,21.67,4.09c12,1.91,24.04,3.54,36.18,4.44c8.92,0.66,17.81,1.78,26.72,2.73
	c2.86,0.3,5.7,0.91,8.56,1.05c18.69,0.89,37.38,1.99,56.08,2.44c23.67,0.57,47.35,0.5,71.02,0.88c9.43,0.15,18.85,0.75,28.28,1.18
	c8.62,0.39,17.22,1.18,25.88,0.98c5.41-0.13,10.85,0.49,16.27,0.86c4.47,0.3,8.92,0.85,13.39,1.07c9.81,0.49,19.47-0.75,29.07-2.64
	c13.03-2.57,25.97-5.46,38.48-10.01c5.86-2.13,11.73-4.24,17.55-6.46c2.38-0.91,4.83-1.81,6.96-3.17c3.5-2.23,6.93-4.52,10.75-6.23
	c1.84-0.82,3.53-2.23,4.97-3.69c3.64-3.71,6.24-8.11,7.61-13.15c2.43-8.94,0.08-16.5-7.07-22.34c-2.82-2.31-5.96-4.39-9.25-5.95
	c-15.61-7.39-31.27-14.65-47.01-21.76c-6.71-3.03-13.76-5.15-21.04-6.46c-6.76-1.22-13.53-2.45-20.23-3.98
	c-8.88-2.03-17.73-4.21-26.52-6.57c-14.55-3.9-29.35-6.43-44.26-8.4c-9.85-1.3-19.71-2.12-29.66-1.89
	C529.1,629.9,521.1,629.99,513.11,630.13z M812.81,758.67c1.19-0.86,1.94-1.46,2.74-1.97c4.16-2.65,7.25-2.09,10.37,1.84
	c0.98,1.23,1.98,2.45,3.2,3.97c2.63-3.95,6.88-4.08,10.71-5.34c0.19-3.18,0.37-6.21,0.56-9.23c0.98-16.28,1.97-32.57,2.94-48.85
	c0.04-0.75,0.25-1.63-0.94-1.97c-7.92,5.15-16.73,6.59-26.07,5.83c-5.94-0.48-10.74-2.79-14.13-7.84c-0.85-1.27-1.57-2.79-3.35-3.41
	c-0.82,1.92-0.74,3.85-0.83,5.74c-0.29,6.07-0.63,12.14-0.79,18.22c-0.28,11.35-0.46,22.71-0.64,34.06
	c-0.01,0.89,0.27,1.79,0.41,2.65c0.56-0.03,0.93,0.06,1.18-0.07c2.98-1.64,5.46-0.8,7.89,1.28
	C808.1,755.33,810.36,756.84,812.81,758.67z M823.29,697.2c8.77,0.2,16.36-5.19,19.86-12.67c1.55-3.32,2.15-6.74,0.72-10.21
	c-1.15-2.79-2.31-5.63-3.89-8.18c-2.62-4.24-6.58-6.92-11.4-8.21c-3.75-1.01-7.59-1.04-11.42-0.53c-0.77,0.1-1.58,0.36-2.22,0.77
	c-3.79,2.4-7.42,5-10.4,8.4c-1.85,2.11-2.82,4.58-3.03,7.39C800.53,686.73,810.46,697.48,823.29,697.2z"/>
</svg>
