<?xml version="1.0" encoding="utf-8"?>
<!-- Generator: Adobe Illustrator 24.3.0, SVG Export Plug-In . SVG Version: 6.00 Build 0)  -->
<svg version="1.1" id="Calque_1" xmlns="http://www.w3.org/2000/svg" xmlns:xlink="http://www.w3.org/1999/xlink" x="0px" y="0px"
	 viewBox="0 0 2400 2400" style="enable-background:new 0 0 2400 2400;" xml:space="preserve">
<g>
	<g>
		<path d="M340.9,661.37c1.63-4.44,2.22-9.73,5.05-13.2c37.75-46.34,75.6-92.61,113.93-138.48c11.6-13.88,12.3-13.29,33.02-13.97
			c0.42-7.59,1.23-15.45,1.17-23.3c-0.05-6.65,1.92-10.36,8.69-13.06c44.54-17.73,88.87-36,133.26-54.13
			c8.01-3.27,13.7-5.61,22.11,3.23c12.67,13.32,28.68,23.79,44.3,33.88c15.21,9.82,24.72,21.66,25.5,40.48
			c0.72,17.54,4.4,35,4.56,52.52c0.57,65.95,0.48,131.91,0.13,197.87c-0.19,37-1.29,73.99-2.18,110.99
			c-0.15,6.11-1.31,12.2-2.13,19.36c43.37,1.56,85.92-1.28,126.21,1.85c-1.02,6.84-2.02,11.05-2.17,15.28
			c-0.19,5.23,0.43,10.48,0.51,15.72c0.64,41.27,1.93,82.55,1.64,123.82c-0.23,32.3-2.43,64.58-3.83,98.63
			c19.78,0.95,39.53,1.9,59.28,2.85c0.77-1.05,1.54-2.09,2.31-3.14c0.65,4.43,1.39,8.84,1.94,13.28
			c1.35,10.98,3.16,21.94,3.81,32.97c1.57,26.74,3.38,53.51,3.69,80.28c1.2,104.91,2.26,209.82,2.51,314.73
			c0.11,45.5-1.9,91-2.96,136.5c-0.47,19.96-1.25,39.92-1.43,59.88c-0.83,96.06-1.5,192.12-2.26,288.18
			c-0.02,2.23-0.33,4.45-0.52,6.74c-8.77,1.1-9.07-4.18-8.92-10.3c1.12-47.17,2.53-94.33,3.05-141.5
			c0.52-47.9,0.04-95.82,0.16-143.72c0.07-28.21,0.24-56.43,0.68-84.64c1.77-114.35,4.3-228.7,5.21-343.06
			c0.42-53.38-2.04-106.78-3.6-160.16c-0.34-11.69-2.03-23.39-3.96-34.95c-0.42-2.51-4.53-6.27-6.96-6.28
			c-18.25-0.09-36.5,0.98-54.75,0.96c-16.57-0.01-33.14-1.17-49.72-1.38c-20.87-0.26-41.76-0.06-62.28-0.06
			c1.89,283.25,3.79,567.59,5.69,852.28c-9.55-0.86-10.78-5.62-10.77-12.38c0.17-67.54,0.15-135.09,0.08-202.63
			c-0.03-27.89-0.35-55.77-0.48-83.66c-0.56-118.4-0.96-236.8-1.71-355.19c-0.29-45.25-1.23-90.5-2.07-135.74
			c-0.64-34.37-1.59-68.73-2.43-103.09c-1.2-49.43-2.46-98.86-3.63-148.3c-0.62-26.19-1.63-52.39-1.51-78.58
			c0.15-32.1,1.53-64.18,1.97-96.28c1.18-85.87,2.25-171.73,3.02-257.6c0.09-10.35,0.03-21.52-3.71-30.81
			c-2.98-7.42-11.32-12.94-17.89-18.61c-14.58-12.58-29.73-24.51-44.27-37.14c-5.65-4.91-10.22-6.55-18.02-3.6
			c-45.98,17.4-92.26,33.99-137.58,50.54c0.66,81.94,1.29,163.16,1.99,244.38c0.51,59,1.66,118,1.55,177
			c-0.14,70.16-1.51,140.32-2.01,210.48c-0.75,104.92-1.44,209.85-1.64,314.77c-0.07,37.01,1.4,74.02,2.09,111.03
			c0.62,33.41,1.46,66.83,1.63,100.24c0.27,53.11,0.07,106.23,0.07,159.69c-5.28-5.71-11.81-10.81-11.77-21.31
			c0.19-45.94-0.03-91.88-0.39-137.81c-0.35-44.59-0.98-89.17-1.62-133.76c-0.61-42.28-1.58-84.56-2.07-126.85
			c-0.74-63.94-1.75-127.88-1.63-191.82c0.11-61.97,1.4-123.93,2.34-185.9c0.89-58.34,2.63-116.67,2.81-175
			c0.13-41.95-2.32-83.9-2.49-125.85c-0.22-56.41,0.66-112.83,1.07-169.24c0.02-3.25,0-6.51,0-10.18
			c-9.57-2.52-15.22-1.93-22.35,7.64c-16.76,22.48-36.71,42.57-55.17,63.8c-21.86,25.14-43.48,50.5-65.3,75.68
			c-2.75,3.18-6.08,5.86-9.14,8.77C340.55,661.03,340.9,661.37,340.9,661.37z M842.17,1116.97c2.31-81.75,8.26-163.51,4.96-244.95
			c-40.3,0-78.85,0-116.61,0c0,23.6-0.23,46.08,0.05,68.55c0.56,44.85,1.29,89.7,2.22,134.55c0.28,13.55,1.46,27.09,2.29,41.85
			C770.94,1116.97,805.91,1116.97,842.17,1116.97z"/>
		<path d="M1679.79,1979.98c0-3.4,0-6.57,0-9.74c0-33.8-0.13-67.6,0.02-101.39c0.77-167.58,1.56-335.16,2.47-502.74
			c0.21-39.02,0.79-78.04,1.43-117.05c0.54-33.4,1.29-66.79,2.19-100.19c0.19-7.1,1.43-14.17,2.18-21.18c-58.63,0-116.4,0-175.2,0
			c-1.35,8.5-3.59,17.35-4.02,26.29c-1.2,25.2-2.09,50.43-2.32,75.65c-0.83,93.47-1.58,186.94-1.84,280.42
			c-0.1,38.35,1.02,76.7,1.8,115.04c0.54,26.5,1.8,52.99,2.12,79.49c0.85,70.16,1.29,140.33,2.04,210.49
			c0.46,42.63,1.18,85.25,1.79,127.87c0.07,5.05,0.82,10.59-7.37,9.47c-0.82-13.65-2.31-27.56-2.38-41.49
			c-0.27-59.06-0.03-118.13-0.15-177.19c-0.08-40.35-0.03-80.71-0.76-121.05c-0.71-39.57-3.01-79.12-3.41-118.68
			c-0.96-95.42-1.38-190.84-1.64-286.26c-0.06-23.56,0.65-47.17,2.19-70.68c2.3-35.11,5.63-70.15,8.57-105.21
			c0.33-3.98,0.98-7.94,1.34-10.71c22.27,4.91,41.69-2.97,62.24-0.82c-1.1-21.47-2.28-41.55-3.1-61.66
			c-0.54-13.1-0.78-26.23-0.76-39.34c0.05-38.39,0.2-76.77,0.54-115.16c0.07-7.79,0.67-15.65,1.95-23.32
			c0.87-5.21,2.23-9.72-6.54-11.43c43.63-6.9,85.87-4.03,127.15-5.17c0-22,0.17-43.16-0.05-64.32c-0.18-17.03-1.21-34.05-1.25-51.07
			c-0.15-73.17-0.56-146.35,0.25-219.52c0.24-21.4,3.79-42.82,6.84-64.09c0.57-3.95,5.56-7.8,9.29-10.68
			c18.09-14.01,36.3-27.88,54.82-41.3c4.03-2.92,9.54-3.8,14.37-5.63c-1.53-2.2-3.06-4.41-4.59-6.61
			c15.43,5.7,31.03,10.98,46.26,17.18c34.48,14.02,68.87,28.27,103,43.09c3.77,1.64,6.08,7.39,8.23,11.66
			c1.06,2.1,0.22,5.16,0.22,7.78c0.02,14.29,0.08,13.92,13.72,16.26c4.33,0.74,9.39,3.05,12.15,6.31
			c36.08,42.69,71.86,85.63,107.58,128.62c7.32,8.81,14.09,18.06,21.12,27.11c-1.26,1.01-2.52,2.01-3.78,3.02
			c-44.53-51.79-89.07-103.58-133.6-155.37c0.63-1,1.27-2.01,1.9-3.01c-5.94,0.77-11.87,1.55-18.33,2.39
			c0,14.19-0.09,27.29,0.02,40.38c0.34,42.96,1.16,85.91,1.01,128.86c-0.17,50.51-1.48,101.01-1.69,151.52
			c-0.19,46.91,0.32,93.83,0.69,140.75c0.29,36.39,1.02,72.78,1.23,109.17c0.67,115.45,1.8,230.89,1.55,346.34
			c-0.16,76.36-2.39,152.71-3.67,229.07c-0.6,35.74-1.69,71.48-1.38,107.21c0.1,11.51-4.3,19.06-12.15,25.73
			c0-48.3-0.25-96.5,0.08-144.7c0.28-41.3,1.31-82.6,1.87-123.9c0.91-67.18,2.25-134.37,2.41-201.55
			c0.24-101.67-0.24-203.34-0.66-305.01c-0.42-101.97-1.36-203.94-1.6-305.92c-0.1-40.29,1.16-80.58,1.62-120.88
			c0.38-33.79,0.47-67.58,0.73-101.36c0.02-2.94,1.03-6,0.45-8.77c-0.59-2.84-1.93-7.05-4-7.83
			c-44.62-16.72-89.38-33.08-134.14-49.41c-5.58-2.03-10.57-2.62-16.03,2.22c-20.07,17.78-40.79,34.81-61.01,52.42
			c-2.28,1.98-4.05,5.83-4.13,8.86c-0.96,35.36-1.75,70.73-2.17,106.1c-0.32,26.9-0.31,53.82-0.01,80.72
			c0.47,41.64,1.47,83.27,1.98,124.9c0.74,60.27,1.93,120.54,1.62,180.8c-0.27,52.04-2.38,104.07-3.65,156.11
			c-0.75,30.78-1.87,61.55-2.12,92.34c-1.17,147.57-1.98,295.15-3.15,442.72c-0.73,92.12-1.87,184.23-2.78,276.34
			c-0.09,9.51-0.21,19.05,0.39,28.53C1690.22,1974.91,1687.93,1978.99,1679.79,1979.98z M1572.3,873.36
			c1.93,82.07,3.87,164.17,5.76,244.68c38.08,0,73.29,0,109.48,0c1.77-82.38,3.49-162.92,5.25-244.68
			C1652.32,873.36,1614.08,873.36,1572.3,873.36z"/>
		<path d="M1139.33,2065.82c-1.59-2.05-4.57-4.1-4.55-6.14c0.23-36.35,0.82-72.7,1.34-109.06c0.02-1.31,0.17-2.62,0.2-3.93
			c0.69-34.73,0.91-69.47,2.17-104.17c1.28-35.22,4.4-70.39,5.27-105.61c2.47-99.23,4.49-198.47,6.11-297.71
			c0.87-53.46,0.72-106.94,0.74-160.41c0.01-45.27-0.27-90.54-0.7-135.81c-0.15-16.36-1.65-32.73-1.55-49.08
			c0.09-14.65,1.54-29.29,2.52-46.17c-63.66,0-126.32,0-189.83,0c-0.09,1.41-0.43,4.25-0.42,7.08c0.15,33.46-0.22,66.93,0.68,100.37
			c1.57,58.5,4.03,116.97,5.91,175.47c0.84,26.18,1.38,52.38,1.69,78.57c0.81,68.51,1.43,137.02,2.11,205.54
			c0.6,60.62,1.71,121.23,1.63,181.85c-0.08,58.31-1.05,116.63-2.36,174.93c-0.67,29.68-2.94,59.32-4.51,89.62
			c-4.44,0-9.07,0-12.84,0c1.4-5.96,3.65-11.26,3.76-16.61c1.67-83.84,3.21-167.68,4.46-251.53c0.86-58.02,1.82-116.06,1.65-174.08
			c-0.23-78.03-1.48-156.05-2.32-234.07c-0.41-37.7-0.5-75.4-1.44-113.08c-1.44-58.22-3.75-116.42-5.08-174.64
			c-0.32-13.96,1.84-27.97,2.66-41.96c0.18-3.05-0.52-6.16-1-11.23c7.52-1.22,15.63-2.53,25.2-4.08c0-47.63,0-95.96,0-146.2
			c-24.09,0-49.37,0-75.04,0c-1.17,36.29-2.32,74.08-3.65,111.87c-1.31,37.35-2.82,74.68-4.24,112.03
			c-1.21-0.01-2.43-0.02-3.64-0.03c0-10.39-0.21-20.78,0.05-31.16c0.45-18,1.48-35.99,1.77-53.99c0.72-44.89,1.13-89.79,1.72-134.69
			c0.09-7.12,6.43-14.22,13.33-13.86c23.48,1.21,46.94,2.72,70.37,4.56c3.82,0.3,7.45,2.87,13.8,5.47
			c-15.53,4.55-10.37,15.05-10.34,23.13c0.07,19.6,1.57,39.2,1.91,58.8c0.37,21.48,0.08,42.98,0.08,65.19
			c58.82-2.15,114.82-1.93,170.91-0.69c-6.78,26.74-2.82,51.17-2.03,75.62c1.27,38.97,1.74,77.96,2.16,116.95
			c0.33,30.73,0.07,61.48,0.07,94.49c17.97-13.12,33.41-24.38,48.84-35.65c0.97,1.11,1.95,2.21,2.92,3.32c-2.1,2.31-4,4.86-6.34,6.9
			c-12.84,11.16-25.98,21.98-38.55,33.43c-2.69,2.45-4.83,7.03-4.87,10.65c-0.87,82.92-1.28,165.84-2.07,248.76
			c-0.29,30.78-0.84,61.57-2.14,92.32c-1.43,33.91-3.98,67.78-5.82,101.68c-1.47,27.06-2.96,54.13-3.8,81.21
			c-1.09,35.34-1.79,70.69-2.21,106.05c-0.35,29.4-0.07,58.81-0.07,88.22C1142.42,2064.75,1140.87,2065.28,1139.33,2065.82z"/>
		<path d="M1516.26,891.89c-12.57,1.3-25.1,3.11-37.7,3.76c-12.67,0.65-25.39,0.14-38.44,0.14c0,48.81,0,96.76,0,143.69
			c7.41,2.28,13.99,4.31,20.56,6.34l0.28-0.24c-3.15,0.58-6.29,1.65-9.44,1.67c-45.6,0.36-91.2,0.6-136.8,0.82
			c-14.67,0.07-29.34,0.01-42.3,0.01c0,27.64,0.06,52.81-0.02,77.98c-0.08,25.59-0.16,51.18-0.49,76.77
			c-0.44,33.41-1.72,66.82-1.59,100.23c0.46,115.12,0.78,230.25,2.43,345.36c0.62,43.05,4.77,86.06,7.24,129.09
			c0.86,15,1.93,30,2.21,45.02c1.41,76.97,2.59,153.95,3.84,230.93c0.06,3.58,0.01,7.16-2.28,12.7c-1.69-1.88-3.96-3.52-4.91-5.73
			c-0.84-1.94-0.2-4.52-0.21-6.82c-0.22-41.01-0.03-82.02-0.8-123.02c-0.68-36.29-2.09-72.58-3.79-108.84
			c-1.56-33.25-4.17-66.46-5.87-99.7c-1.59-31-3.27-62.03-3.73-93.06c-1.03-70.14-1.34-140.28-1.92-210.43
			c-0.19-23.29-0.11-46.59-0.73-69.86c-0.11-3.97-2.08-8.98-4.94-11.62c-13.56-12.51-27.72-24.37-43.48-38.04
			c0,10.2-0.07,17.56,0.01,24.93c0.55,49.17,1.31,98.33,1.65,147.5c0.63,90.52,1.3,181.03,1.37,271.55
			c0.02,28.78-2.57,57.57-2.61,86.35c-0.04,28.79,1.6,57.58,2.51,86.36c0.06,1.97,0.24,3.93,0.24,5.89
			c0.02,42.64,0.14,85.27-0.17,127.91c-0.03,4.47-2.65,8.91-4.08,13.37c-1.34-0.12-2.67-0.23-4.01-0.35
			c-1.01-3.09-2.79-6.14-2.92-9.26c-0.83-19.89-2.04-39.81-1.75-59.7c0.75-52.68,2.64-105.35,3.21-158.04
			c0.33-30.79-1.42-61.6-1.5-92.41c-0.23-84.33-0.32-168.65,0.01-252.98c0.22-55.41,1.11-110.82,2.09-166.22
			c0.17-9.87,2.28-19.71,3.94-33.21c18.01,13.13,33.67,24.55,49.92,36.4c0.24-2,0.69-4.05,0.7-6.11
			c0.21-29.85,0.03-59.71,0.61-89.56c1-51.72,2.43-103.43,3.81-155.14c0.16-6.17,1.21-12.31,1.67-18.48
			c0.14-1.92,0.25-4.14-0.54-5.79c-5.08-10.58-5.16-10.83,6.42-10.82c47.85,0.04,95.71,0.26,143.56,0.42c4.83,0.02,9.66,0,15.86,0
			c0-17.1-0.31-33.11,0.07-49.09c0.68-28.77,1.94-57.53,2.51-86.31c0.07-3.56-2.57-7.18-4.95-13.36c2.86-0.71,7.65-2.53,12.56-3.02
			c21.03-2.08,42.1-3.77,63.16-5.59c5.11-0.44,10.12-0.6,11.31,6.18C1517.43,890.95,1516.85,891.42,1516.26,891.89z"/>
		<path d="M1460.68,1045.81c1.61,0,3.22,0,4.18,0c0.75,15,2.2,29.87,2.1,44.73c-0.31,43.59-1.15,87.18-1.95,130.76
			c-0.65,35.35-1.84,70.68-2.28,106.03c-0.74,60.68-1.25,121.36-1.54,182.04c-0.67,137.76-1.41,275.53-1.52,413.3
			c-0.03,32.67,2.28,65.35,3.62,98.02c0.39,9.44,0.97,18.88,1.84,28.28c0.37,4.01,1.72,7.92,2.81,12.65
			c-3.39,0.58-7.45,1.28-12.41,2.12c-0.97-20.29-2.5-39.77-2.72-59.26c-1.41-123.88-2.59-247.77-3.7-371.65
			c-0.2-22.96,0.16-45.92,0.48-68.88c0.49-34.71,1.28-69.42,1.73-104.14c0.77-58.68,0.81-117.37,2.23-176.04
			c1.13-47.03,4.17-94.02,5.76-141.05c1.09-32.37,1.15-64.78,1.66-97.17C1460.96,1045.58,1460.68,1045.81,1460.68,1045.81z"/>
		<path d="M2053.88,1562.15c1.81-34.52,3.75-69.04,5.35-103.57c0.62-13.42,0.61-26.88,0.64-40.32c0.09-29.84-0.7-59.7,0.22-89.52
			c1-32.26,4.39-64.44,5.22-96.7c1.39-54.38,1.51-108.79,2.31-163.19c0.58-39.61,1.25-79.23,2.16-118.84
			c1.11-48.41,2.17-96.82,3.87-145.2c1.63-46.37,4.04-92.7,6.14-139.05c0.03-0.59,0.53-1.15,1.84-3.83
			c1.61,3.35,3.47,5.41,3.44,7.45c-0.37,24.85-1.1,49.69-1.58,74.53c-0.34,17.7-0.45,35.41-0.65,53.12
			c-0.04,3.61,0.04,7.22-0.01,10.82c-1.22,80.9-2.48,161.79-3.67,242.69c-0.63,42.9-1.04,85.8-1.79,128.7
			c-0.41,23.25,0.29,46.67-2.32,69.69c-7.56,66.58-3.89,133.38-5.79,200.06c-0.72,25.15-1.04,50.37-3.45,75.38
			c-1.25,13-6.66,25.6-10.19,38.38C2055.05,1562.55,2054.47,1562.35,2053.88,1562.15z"/>
		<path d="M340.55,661.03c1.43,30.02,3.26,60.02,4.2,90.05c1.16,36.96,1.45,73.95,2.36,110.91c1.11,45.12,2.54,90.23,3.72,135.35
			c0.94,35.98,1.9,71.97,2.52,107.95c0.65,38.02,0.3,76.07,1.52,114.07c1.2,37.18,4.25,74.29,5.69,111.46
			c0.85,22.13-0.27,44.33,0.24,66.49c0.72,31.37,2.42,62.72,3.15,94.09c0.51,22.03,0.1,44.08,0.1,64.95
			c-2.83-10.76-7.88-22.97-8.96-35.52c-2.04-23.77-2.01-47.72-2.45-71.61c-0.96-52.06,1.14-104.35-3.13-156.13
			c-7.63-92.53-4.85-185.13-6.78-277.69c-0.72-34.69-1.71-69.37-2.42-104.06c-0.58-28.82-0.93-57.64-1.37-86.46
			c-0.77-51.09-1.62-102.19-2.11-153.28c-0.03-3.4,2.64-6.82,4.05-10.24C340.9,661.37,340.55,661.03,340.55,661.03z"/>
		<path d="M1516.26,891.89c0.59-0.47,1.17-0.93,1.76-1.4c7.08,0.27,6.02,5.59,6.06,10.03c0.3,34.74,0.23,69.49,0.88,104.23
			c0.55,29.41,2.12,58.8,2.79,88.21c0.2,8.73-1.09,17.49-2.57,26.24C1518.96,1043.54,1515.95,967.78,1516.26,891.89z"/>
	</g>
</g>
</svg>
