<?xml version="1.0" encoding="utf-8"?>
<!-- Generator: Adobe Illustrator 24.3.0, SVG Export Plug-In . SVG Version: 6.00 Build 0)  -->
<svg version="1.1" id="Calque_1" xmlns="http://www.w3.org/2000/svg" xmlns:xlink="http://www.w3.org/1999/xlink" x="0px" y="0px"
	 viewBox="0 0 1000 1000" style="enable-background:new 0 0 1000 1000;" xml:space="preserve">
<g>
	<g>
		<path d="M101.06,518.24c0.25-2.19,0.66-4.37,0.73-6.56c0.46-13.47,1.38-26.91,3-40.29c1.95-16.13,3.94-32.26,6.42-48.31
			c3.12-20.2,8.37-39.93,14.67-59.37c5.46-16.84,11.34-33.53,18.15-49.88c2.03-4.87,4.24-9.67,6.45-14.45
			c0.78-1.69,1.76-3.31,2.78-4.88c5.23-8.03,10.65-15.94,15.74-24.05c7.3-11.65,15.79-22.29,25.21-32.3
			c11.75-12.49,24.49-23.81,38.05-34.27c7.43-5.73,14.56-11.85,22.13-17.37c25.54-18.66,52.77-34.43,81.9-46.86
			c13.28-5.67,26.63-11.21,40.61-14.9c13.35-3.52,26.83-6.55,40.27-9.7c13.69-3.21,27.62-4.91,41.59-6.13
			c8.99-0.79,18.02-1.01,27.03-1.51c0.6-0.03,1.2-0.2,1.79-0.3c5.28,0,10.56,0,15.85,0c1.22,0.13,2.44,0.29,3.67,0.37
			c10.25,0.69,20.52,1.18,30.75,2.08c17.79,1.56,35.41,4.38,53.02,7.26c27.04,4.42,53.07,12.35,78.23,23.21
			c18.4,7.94,36.08,17.19,52.76,28.34c10.02,6.7,19.26,14.36,28.31,22.28c8.07,7.06,15.33,14.92,22.86,22.52
			c4.11,4.14,8.05,8.45,12.21,12.54c19.31,19,35.08,40.65,48.4,64.17c6.57,11.61,12.44,23.56,18.02,35.68
			c2.84,6.18,6.03,12.19,9.07,18.27c9.12,18.2,16.13,37.17,20.91,56.95c2.22,9.17,4.47,18.34,6.36,27.59
			c2.02,9.86,3.36,19.83,4.14,29.89c0.34,4.34,1.34,8.63,2.19,12.92c2.18,11.12,3.82,22.31,4.47,33.63
			c0.32,5.54,0.58,11.09,0.89,16.64c0.03,0.61,0.2,1.21,0.31,1.82c0,1.53,0,3.06,0,4.59c-0.16,0.61-0.46,1.22-0.47,1.83
			c-0.03,4.52,0.09,9.03-0.01,13.55c-0.25,11.83-1.51,23.53-4,35.12c-2.14,9.97-4.05,19.99-6.07,29.99
			c-2.62,12.96-6.59,25.52-11.33,37.85c-8.38,21.78-18.76,42.55-31.73,61.97c-8.95,13.4-18.01,26.73-27.86,39.49
			c-5.22,6.76-10.62,13.41-16.37,19.71c-3.86,4.24-8.29,8.02-12.79,11.6c-9.14,7.25-18.44,14.31-27.78,21.29
			c-14.47,10.8-29.04,21.48-44.14,31.39c-5.68,3.73-11.22,7.71-17.52,10.41c-7.46,3.19-14.84,6.57-22.31,9.76
			c-15.25,6.52-30.52,12.99-45.8,19.42c-6.43,2.71-13.23,4.15-20.03,5.54c-10.2,2.07-20.38,4.25-30.62,6.1
			c-9.28,1.68-18.63,3.04-27.96,4.45c-6.45,0.97-12.92,1.85-19.4,2.62c-5.17,0.61-10.36,1-15.55,1.47
			c-5.53,0.5-11.06,1.02-16.6,1.45c-4.22,0.33-8.45,0.53-12.67,0.81c-0.46,0.03-0.91,0.2-1.37,0.31c-2.78,0-5.56,0-8.34,0
			c-2.65-0.43-5.29-1.03-7.96-1.25c-6.64-0.53-13.3-0.87-19.96-1.31c-7.91-0.52-15.73-1.75-23.49-3.36
			c-13.59-2.82-27.14-5.86-40.75-8.6c-7.43-1.5-14.26-4.52-21.16-7.44c-15.75-6.67-30.87-14.59-45.71-23.07
			c-17.48-9.99-34.97-19.99-52.41-30.06c-4.57-2.64-9.02-5.48-13.43-8.38c-2.14-1.4-4.11-3.08-6.04-4.76
			c-6.29-5.47-12.59-10.93-18.79-16.51c-10.38-9.33-20.85-18.58-30.99-28.17c-10.23-9.68-18.93-20.7-26.9-32.3
			c-9.4-13.69-18.06-27.86-26.76-42c-4.69-7.63-9.32-15.3-13.9-23c-1.2-2.02-2.36-4.12-3.13-6.33c-3.75-10.67-7.7-21.29-10.91-32.13
			c-2.83-9.57-4.87-19.38-7.11-29.12c-2.51-10.9-4.7-21.87-6.1-32.96c-0.97-7.71-1.32-15.49-1.94-23.24
			c-0.17-2.07-0.29-4.15-0.45-6.22c-0.01-0.17-0.21-0.34-0.31-0.5C101.06,528.25,101.06,523.25,101.06,518.24z M498.41,880.49
			c0,0.02,0,0.05,0,0.07c1.73-0.1,3.46-0.23,5.2-0.28c9.1-0.26,18.16-0.95,27.2-2.07c6.27-0.78,12.54-1.62,18.84-2.11
			c9.71-0.77,19.29-2.3,28.78-4.46c15.3-3.47,30.48-7.38,45.57-11.66c7.27-2.06,14.58-4.05,21.78-6.33
			c10.1-3.19,19.54-7.89,28.69-13.21c7.38-4.29,14.92-8.34,22.9-11.42c9.63-3.71,18.33-8.92,26.15-15.63
			c3.22-2.77,6.59-5.32,10.38-7.29c2.65-1.38,5.25-2.85,7.92-4.17c11.05-5.43,20.69-12.97,30.44-20.33
			c1.76-1.33,3.36-2.95,4.71-4.69c5.19-6.65,11.21-12.52,17.08-18.53c2.42-2.48,4.9-4.96,6.96-7.73
			c9.58-12.87,18.75-26.03,27.46-39.53c8.52-13.2,16.77-26.55,23.18-40.93c5.62-12.62,11.03-25.33,16.36-38.07
			c3.27-7.82,5.89-15.89,7.64-24.19c2.63-12.42,5.24-24.85,7.61-37.33c1.53-8.04,2.74-16.15,3.85-24.26
			c0.83-6.05,1.32-12.15,1.84-18.23c0.72-8.44,1.43-16.87,1.11-25.36c-0.44-11.4-1.82-22.69-3.65-33.94
			c-1.61-9.94-3.2-19.87-4.8-29.81c-0.87-5.42-1.64-10.88-3.74-15.98c-3.14-7.6-5.3-15.5-7.53-23.37
			c-2.18-7.7-4.78-15.21-8.14-22.49c-3.81-8.26-7.34-16.64-10.82-25.04c-2.65-6.41-4.9-12.99-7.58-19.39
			c-3.78-9.03-7.88-17.92-11.7-26.93c-5.38-12.68-12.9-23.93-22.34-33.92c-2.35-2.48-4.44-5.15-6.21-8.08
			c-5.6-9.24-11.99-17.89-19.51-25.66c-3.72-3.84-7.66-7.48-11.22-11.47c-9.93-11.13-20.78-21.25-32.54-30.4
			c-5.48-4.27-11.08-8.4-16.34-12.93c-7.86-6.78-16.57-12.08-26.06-16.22c-6.55-2.86-13.06-5.84-19.39-9.14
			c-7.98-4.16-16.21-7.55-24.87-9.99c-9.35-2.64-18.6-5.59-27.49-9.6c-2.84-1.28-5.78-2.36-8.74-3.36
			c-15.41-5.26-31.34-7.84-47.52-9.11c-4.43-0.35-8.87-0.65-13.27-1.21c-4.54-0.57-9.04-1.47-13.57-2.15
			c-8.31-1.24-16.61-2.5-24.94-3.6c-5.5-0.73-11.03-1.52-16.56-1.71c-7-0.24-14.02,0.06-21.03,0.23c-3.47,0.08-6.97,0.11-10.38,0.66
			c-9.11,1.48-18.2,3.12-27.26,4.88c-19.01,3.69-37.85,8.12-56.53,13.28c-18.18,5.03-35.81,11.44-52.85,19.52
			c-11.91,5.65-23.84,11.27-35.75,16.92c-12.89,6.12-25.2,13.25-36.56,21.92c-8.5,6.49-16.92,13.1-25.28,19.77
			c-2.54,2.03-4.84,4.38-7.15,6.68c-6.64,6.64-12.48,13.99-18.43,21.24c-6.8,8.27-13.22,16.81-19.02,25.83
			c-2.82,4.37-5.77,8.7-9.07,12.71c-10.44,12.71-19.13,26.51-25.21,41.76c-7.02,17.6-13.53,35.4-20.08,53.18
			c-5.01,13.6-7.75,27.79-10.05,42.06c-1.66,10.28-3.3,20.56-4.83,30.86c-1.02,6.87-1.95,13.75-2.72,20.65
			c-0.72,6.49-1.12,13.01-1.76,19.5c-0.81,8.23-1.41,16.47-1.33,24.74c0.03,3.54,0.06,7.08,0.15,10.62
			c0.14,5.76,0.19,11.53,0.52,17.28c0.29,5.06,0.84,10.1,1.38,15.14c0.5,4.62,0.94,9.27,1.76,13.84c2.2,12.3,4.57,24.56,6.9,36.84
			c1.37,7.23,2.68,14.48,5.14,21.44c6.02,17.04,13.19,33.58,21.6,49.59c6.06,11.53,12.95,22.5,20.91,32.81
			c5.43,7.04,10.69,14.21,16.05,21.31c2.89,3.82,5.81,7.62,8.77,11.39c5.9,7.52,12.96,13.92,19.91,20.41
			c5.63,5.26,11.17,10.64,17.08,15.59c12.79,10.71,26.27,20.52,40.13,29.82c6.92,4.64,13.78,9.37,21.27,13.1
			c1.97,0.98,3.82,2.28,5.6,3.6c11,8.2,22.67,15.31,35.05,21.21c31.83,15.18,64.96,26.19,100,31.03
			c10.54,1.46,21.12,2.29,31.77,2.02c2.92-0.07,5.93-0.61,8.8,0.58c0.24,0.1,0.55,0.02,0.83,0.01
			C486.07,880.99,492.24,880.74,498.41,880.49z"/>
		<path d="M333.02,573.91c-1.42-0.16-1.52-0.96-1.8-1.68c-2.04-5.15-2.43-10.5-2.08-15.97c0.32-5.06,0.37-10.14,0.87-15.18
			c0.93-9.39,1.79-18.81,3.73-28.06c1.13-5.38,3.23-10.47,5.19-15.59c1.52-3.95,2.94-7.94,4.48-11.88c0.76-1.94,1.59-3.86,2.55-5.7
			c4.75-9.03,9.62-18,14.33-27.06c3.86-7.43,8.43-14.35,13.7-20.86c3.89-4.81,7.56-9.8,12.1-14.03c8.09-7.53,16.27-14.93,26.1-20.26
			c4.76-2.58,9.27-5.63,14.1-8.03c8.57-4.25,17.79-6.62,27.13-8.52c9-1.83,18.11-2.78,27.26-3.42c9.35-0.66,18.7-1.32,28.05-1.99
			c7.04-0.51,14.02,0.11,20.95,1.3c7.8,1.34,15.56,2.91,23.12,5.28c2.91,0.91,5.81,1.93,8.57,3.19c9.02,4.13,18,8.36,26.96,12.62
			c6.01,2.86,11.34,6.68,16,11.47c3.34,3.43,6.98,6.56,10.39,9.94c10.1,10.02,18.24,21.47,24.8,34.06
			c5.35,10.28,10.65,20.6,16.04,30.86c5.44,10.36,8.88,21.38,10.91,32.87c1.51,8.56,2.14,17.22,2.97,25.86
			c0.37,3.94,1.04,7.85,1.36,11.79c0.3,3.73,0.39,7.49,0.42,11.23c0.02,2.94-1.42,5.31-3.52,7.46c-1.58-0.62-2.64-1.67-3.32-3.34
			c-1.47-3.61-1.74-7.41-2.06-11.22c-0.73-8.51-1.22-17.04-2.22-25.52c-1.43-12.12-4.76-23.8-9.19-35.17
			c-8.28-21.24-19.41-40.87-33.5-58.8c-5.07-6.45-10.23-12.82-15.38-19.19c-6.23-7.72-14-13.45-23.06-17.4
			c-9.1-3.96-18.22-7.86-27.41-11.62c-6.31-2.59-12.87-4.43-19.69-5.09c-4.35-0.42-8.73-0.56-13.1-0.8
			c-13.74-0.76-27.31,0.79-40.85,2.93c-11.39,1.8-22.76,3.62-33.95,6.42c-6.4,1.6-12.82,3.07-18.84,5.9
			c-11.73,5.52-21.95,13.03-30.46,22.82c-14.88,17.11-27.73,35.6-38.01,55.85c-4.69,9.23-9.06,18.59-12.25,28.47
			c-3.24,10.03-5.24,20.28-5.69,30.83c-0.33,7.63-0.67,15.26-1.29,22.87c-0.25,3.01-1.1,6-2,8.9
			C335.01,571.76,333.81,572.81,333.02,573.91z"/>
		<path d="M734.95,582.19c-0.33,0.29-0.64,0.54-0.93,0.82c-0.92,0.89-2.01,1.1-3.26,1.05c-2.91-0.12-5.82-0.29-8.72-0.2
			c-6.04,0.18-12.07,0.66-18.1,0.74c-6.8,0.09-13.6-0.3-20.4-0.18c-11.94,0.2-23.88,0.62-35.81,0.97c-1.32,0.04-2.63,0.2-3.94,0.37
			c-2.94,0.38-5.44-3.12-4.82-6.15c0.23-1.09,1.08-1.59,2.11-1.73c3.23-0.43,6.46-1.06,9.71-1.19c11.24-0.45,22.48-0.74,33.73-1.05
			c6.32-0.18,12.64-0.21,18.95-0.44c9.31-0.35,18.6,0.04,27.89,0.66c2.9,0.2,5.8,0.47,8.9,0.73c0.27,1.53,0.53,3.01,0.78,4.49
			c0.4,2.4,0.85,4.78,1.14,7.19c0.15,1.23-0.02,2.49-0.03,3.74c-0.07,9.03-0.11,18.06-0.22,27.09c-0.13,11.11-0.35,22.22-0.47,33.33
			c-0.1,9.52-0.16,19.03-0.13,28.55c0.02,9.86,0.19,19.73,0.26,29.59c0.07,8.96,0.26,17.93,0.1,26.88
			c-0.17,9.3-0.57,18.6-1.11,27.88c-0.23,3.94-1.09,7.83-1.64,11.75c-0.19,1.32-0.67,2.71,0.74,3.75c0.16,0.12,0.08,0.66,0.01,0.98
			c-0.42,1.94-0.33,3.84,0.09,5.78c0.54,2.49-0.37,4.67-1.87,6.6c-1.1,1.4-2.35,1.22-2.93-0.51c-0.59-1.77-1.03-3.61-1.33-5.45
			c-1.58-9.94-0.68-19.93-0.55-29.91c0.11-8.34,0.11-16.67,0.16-25.01c0.14-25.7,0.34-51.41,0.39-77.11
			c0.02-10.14-0.28-20.28-0.46-30.41c-0.13-7.52,0.55-14.97,1.41-22.43c0.69-6,1.01-12.04,1.5-18.06
			C736.2,584.11,735.81,583.14,734.95,582.19z"/>
		<path d="M271.23,579.38c-0.2,5.65-0.32,11.07,0.54,16.44c1.74,10.86,2.43,21.8,2.41,32.79c-0.03,17.23-0.07,34.46-0.14,51.69
			c-0.06,13.96-0.21,27.92-0.26,41.89c-0.04,12.02-0.06,24.04,0.01,36.06c0.04,7.08,0.27,14.16,0.39,21.24
			c0.03,1.81-0.05,3.61-0.06,5.42c0,0.94-0.06,1.78,0.63,2.7c1,1.34,0.03,6.94-1.11,8.17c-0.84,0.9-1.93,0.92-2.65-0.14
			c-1.1-1.62-1.98-3.41-1.79-5.42c0.09-1.03-0.17-1.88-0.45-2.81c-0.33-1.11-0.78-2.36-0.57-3.43c0.9-4.62,0.39-9.14-0.71-13.62
			c-0.85-3.47-0.99-7-1.05-10.54c-0.17-9.44-0.33-18.89-0.42-28.33c-0.13-13.61-0.19-27.23-0.29-40.84
			c-0.03-4.44-0.16-8.89-0.12-13.33c0.09-10.56,0.42-21.11,0.36-31.67c-0.06-12.85-0.45-25.69-0.63-38.54
			c-0.09-6.46-0.05-12.91-0.04-19.37c0-3.38,1.15-6.52,2.22-9.85c2.99-0.14,6.03-0.27,9.07-0.44c6.79-0.37,13.58-0.88,20.38-1.08
			c5.62-0.17,11.25-0.02,16.87,0.05c4.1,0.05,8.19,0.13,12.29,0.31c9.57,0.43,19.14,0.92,28.7,1.41c2.84,0.15,5.69,0.32,8.52,0.61
			c1.22,0.12,2.47,0.43,3.61,0.89c1.38,0.55,1.82,1.45,1.37,2.85c-0.4,1.23-1.02,2.43-1.73,3.52c-0.73,1.12-1.96,1.55-3.28,1.46
			c-1.66-0.12-3.32-0.3-4.97-0.5c-11.78-1.46-23.55-3.08-35.35-4.36c-7.8-0.85-15.64-1.29-23.47-1.77
			c-9.08-0.56-18.16-0.97-27.24-1.44C271.98,579.37,271.71,579.38,271.23,579.38z"/>
		<path d="M394.71,722.18c-3.05,0.15-6.1,0.29-9.15,0.45c-1.14,0.06-2.21-0.11-3.14-0.84c-2.19-1.7-1.94-4.68,0.62-5.71
			c1.39-0.56,2.96-0.86,4.45-0.89c2.35-0.04,4.72,0.11,7.06,0.42c6.83,0.9,13.7,1.08,20.58,1.13c17.51,0.12,35.01,0.2,52.52,0.37
			c5.76,0.05,11.52,0.46,17.28,0.44c15.63-0.05,31.26-0.35,46.89-0.36c13.4-0.01,26.8,0.5,40.17,1.5
			c7.13,0.53,14.28,0.85,21.41,1.35c6.1,0.42,12.18,0.98,18.28,1.44c3.25,0.25,6.51,0.41,9.76,0.64c1.27,0.09,2.62,0.27,3.11,1.66
			c0.48,1.37-0.49,2.37-1.31,3.31c-1.16,1.32-2.69,1.99-4.4,2.12c-1.51,0.12-3.04,0.1-4.56,0.01c-3.67-0.23-7.34-0.51-11-0.83
			c-4.77-0.41-9.54-0.96-14.31-1.27c-5.61-0.36-11.23-0.6-16.85-0.77c-10.55-0.32-21.1-0.51-31.65-0.82
			c-10.2-0.31-20.41-0.62-30.6-1.09c-11.93-0.55-23.85-1.33-35.81-1.2c-10.56,0.12-21.11,0.38-31.67,0.38
			c-9.79,0-19.59-0.17-29.38-0.42c-4.99-0.13-9.98-0.59-14.97-0.88c-1.11-0.06-2.22-0.01-3.33-0.01
			C394.72,722.26,394.72,722.22,394.71,722.18z"/>
		<path d="M371.25,842.5c0.62,0.29,1.41,0.66,2.21,1.03c0.28,1.95-0.59,3.35-1.87,4.67c-1.49-1.41-2.24-2.94-1.8-4.91
			c0.22-0.98,0.07-1.84-0.54-2.73c-0.39-0.57-0.54-1.43-0.52-2.16c0.15-4.37,0.39-8.74,0.58-13.11c0.27-6.38,0.58-12.76,0.76-19.14
			c0.14-5.21,0.24-10.42,0.13-15.62c-0.23-11.17-0.61-22.34-0.94-33.51c-0.17-5.9-0.38-11.8-0.53-17.69
			c-0.26-10.06-0.58-20.12-0.7-30.19c-0.07-5.9,0.27-11.8,0.3-17.7c0.05-10.83,0.04-21.66,0.01-32.49
			c-0.02-7.08-0.24-14.17-0.17-21.25c0.14-13.89,0.43-27.77,0.66-41.65c0.05-3.19,0.11-6.39,0.15-9.58c0.01-0.97,0.29-1.77,1.25-2.2
			c1.83-0.83,3.16-0.14,3.39,1.88c0.38,3.38,0.5,6.8,1.02,10.15c0.86,5.53,0.55,11.08,0.58,16.62c0.12,24.87,0.24,49.74,0.27,74.6
			c0.01,7.5-0.45,15-0.34,22.49c0.13,8.88,0.66,17.75,0.97,26.63c0.14,4.02,0.19,8.05,0.22,12.08c0.04,4.59-0.03,9.17,0.02,13.76
			c0.05,5.35,0.28,10.69,0.23,16.03c-0.04,4.86-0.3,9.71-0.56,14.56c-0.43,8.25-0.86,16.5-1.44,24.74
			c-0.48,6.72-1.12,13.42-1.84,20.11C372.57,839.44,371.79,840.88,371.25,842.5z"/>
		<path d="M637.85,846.93c-2.09-1.31-2.45-3.03-2.28-4.92c0.09-1.06,0.01-2.02-0.48-3.01c-0.35-0.71-0.32-1.61-0.4-2.43
			c-0.3-3.17-0.47-6.35-0.87-9.5c-1.23-9.64-2.24-19.3-2.61-29.02c-0.47-12.42-0.87-24.84-0.51-37.27c0.3-10.34,0.8-20.67,1.06-31
			c0.25-10.27,0.38-20.55,0.44-30.82c0.08-15.91,0.06-31.82,0.08-47.73c0.01-6.95-0.02-13.89,0.09-20.84
			c0.17-11.38,0.45-22.76,0.67-34.15c0.05-2.43,0.01-4.86,0.13-7.29c0.08-1.58,0.32-3.17,0.59-4.73c0.24-1.41,0.65-1.71,1.89-1.72
			c1.49-0.01,2.41,0.62,2.61,1.84c0.08,0.48,0.05,0.97,0.05,1.46c0.1,9.31,0.13,18.61,0.3,27.92c0.13,7.22,0.51,14.43,0.64,21.64
			c0.07,4.02-0.23,8.05-0.24,12.07c-0.03,15.14-0.25,30.29,0.08,45.43c0.26,11.95,0,23.87-0.52,35.8
			c-0.68,15.75-1.45,31.49-1.37,47.26c0.06,12.15-0.03,24.31,0.2,36.45c0.1,5.33,0.84,10.65,1.26,15.98
			c0.12,1.45,0.14,2.91,0.2,4.37c0.05,1.23,0.29,2.45,0.42,3.65c0.3,2.74,0.15,5.54-0.04,8.3
			C639.22,845.4,638.38,846.11,637.85,846.93z"/>
	</g>
</g>
</svg>
