<?xml version="1.0" encoding="utf-8"?>
<!-- Generator: Adobe Illustrator 24.3.0, SVG Export Plug-In . SVG Version: 6.00 Build 0)  -->
<svg version="1.1" id="Calque_1" xmlns="http://www.w3.org/2000/svg" xmlns:xlink="http://www.w3.org/1999/xlink" x="0px" y="0px"
	 viewBox="0 0 2400 2400" style="enable-background:new 0 0 2400 2400;" xml:space="preserve">
<g>
	<g>
		<path d="M1174.09,625.34c-22.55,0-44.34,0.3-66.11-0.07c-29.64-0.52-59.34-0.55-88.89-2.63c-35.29-2.48-70.45-6.9-105.66-10.51
			c-1.53-0.16-3.05-0.5-4.54-0.91c-6.63-1.85-15.11-3.53-14.17-11.76c0.37-3.22,9.15-7.1,14.51-7.88
			c33.43-4.88,66.94-9.26,100.49-13.22c21.56-2.54,43.25-4.06,64.87-6.13c1.1-0.1,2.11-1.08,3.04-1.59
			c-17.84-36.47-25.04-75.56-31.29-114.78c-2.92-18.34-3.91-37-5.42-55.54c-0.29-3.56,0.16-7.91,2.04-10.71
			c1.63-2.42,5.74-4.15,8.82-4.25c1.74-0.06,4.92,3.6,5.23,5.89c6.69,49.25,22.01,96.03,39.34,142.36
			c4.02,10.76,4.13,22.98,6.2,35.54c47.24-3.44,95.39-6.95,144.66-10.55c-4.42-34.97,17.29-61.26,30.15-90.46
			c11.44-25.99,20.96-52.42,25.34-80.53c0.71-4.54,0.48-9.22,0.73-14.81c-11.1,0-21.34,0.03-31.59-0.01
			c-70.57-0.26-141.21,1.3-211.68-1.53c-37.87-1.52-75.48-10.29-113.1-16.44c-12.1-1.98-21.51-8.99-27.25-20.42
			c-4.89-9.74-3.52-15.21,6.91-17.31c20.96-4.22,42.04-8.44,63.28-10.47c35.85-3.42,71.85-5.28,107.8-7.52
			c16.48-1.03,33-1.5,49.5-2.04c27.09-0.89,54.2-1.28,81.27-2.51c39.13-1.78,78.21-4.6,117.35-6.09c27.6-1.05,55.29-1.49,82.86-0.27
			c7.71,0.34,19.21,5.93,21.65,12.04c3.2,8.01-0.21,19.04-2.01,28.54c-1.08,5.73-5.24,10.83-6.71,16.54
			c-4.69,18.17-18.76,20.14-34.01,20.97c-25.75,1.4-51.48,3.12-78.64,4.79c8.86,65.42-11.17,125.08-36.83,184.31
			c18.15-1.21,35.89-2.35,53.62-3.58c18.6-1.3,37.2-2.68,55.79-4.05c4.34-0.32,8.79-0.21,12.98-1.2c13.94-3.3,24.91,4.53,36.48,9.65
			c2.04,0.9,4,5.38,3.6,7.83c-1.59,9.86-3.73,19.68-6.41,29.31c-2.03,7.3-5.08,14.33-7.86,21.4c-3.71,9.42-10.92,14.37-20.87,14.36
			c-65.62-0.03-131.23-0.16-196.85-0.51c-10.85-0.06-21.69-1.36-33.23-2.13c-1.84,44.38-3.63,87.7-5.45,131.53
			c20.54-1.46,41.21-2.86,61.87-4.4c28.8-2.15,57.61-4.26,86.39-6.67c31.22-2.62,62.47-5.01,93.57-8.66
			c11.9-1.4,21.63,4.11,28.33,10.41c4.39,4.13,2.24,16.32,1.25,24.7c-0.69,5.82-4.95,11.12-6.65,16.94
			c-5.25,18.03-18.92,22.2-35.3,22.32c-34.99,0.25-69.99,0.43-104.98,0.74c-40.92,0.36-81.84,0.62-122.75,1.29
			c-36.51,0.59-73.02,2.02-109.53,2.46c-56.47,0.68-112.95,0.96-169.43,1.06c-8.15,0.01-16.93,0.01-21.82-9.23
			c-4.8-9.06-4.38-12.24,5.44-14.94c13.11-3.6,26.44-7.03,39.9-8.67c56.34-6.85,112.77-13.05,169.17-19.38
			c13.26-1.49,26.59-2.37,39.83-4.03c2.28-0.29,5.68-2.82,6.13-4.85C1155.05,714.14,1164.24,671.09,1174.09,625.34z"/>
		<path d="M974.42,1775.33c0,63.53,0,125.3,0,187.99c15.36-1.81,31.25-3.58,47.13-5.58c27.38-3.44,54.74-7.05,82.12-10.53
			c39.05-4.97,78.09-10.07,117.18-14.74c21.56-2.58,43.2-5.76,64.84-6.12c19.65-0.32,25.39,8.12,17.44,25.26
			c-0.51,1.11-1.45,2.06-1.8,3.2c-4.98,16.18-4.68,20.55-29.69,20.05c-26.51-0.53-53.02-1.16-79.54-1.46
			c-20.62-0.23-41.24-0.2-61.86,0.07c-52.42,0.69-104.84,1.51-157.26,2.6c-3.08,0.06-6.74,2.3-9,4.62c-4.25,4.35-8,5.33-12.75,1.12
			c-11.73-10.39-18.48-23.64-19.14-38.98c-1.31-30.54-1.72-61.14-2.01-91.71c-0.32-32.8-0.32-65.61,0.01-98.41
			c0.26-25.89,0.61-51.81,2.01-77.66c1.75-32.24,4.56-64.42,7.05-96.61c0.41-5.29,1.01-10.66,2.43-15.75
			c1.59-5.69,10.2-8.73,13.39-4.3c4.71,6.55,10.35,4.46,15.87,4.08c24.77-1.73,49.52-3.87,74.29-5.65
			c60.98-4.38,122.2-6.21,182.69-16.01c9.03-1.46,17.69-0.82,24.89,4.07c7.58,5.15,3.54,13.44,2.29,20.43
			c-0.62,3.47-2.93,6.6-3.88,10.05c-3.6,13.04-13.08,17.47-25.4,17.31c-40.9-0.54-81.83-0.34-122.68-2.2
			c-42.51-1.94-84.92-5.94-127.37-9.13c-3.65-0.27-7.25-1.21-10.44-1.77c3.13,58.13,6.25,115.91,9.39,174.16
			c18.05-1.21,36.59-2.22,55.1-3.77c18.84-1.57,37.66-3.52,56.45-5.58c35.13-3.84,70.21-8.16,105.38-11.6
			c7.96-0.78,16.22,1.03,24.29,2.08c10.59,1.38,9.64,9.68,8.05,16.45c-1.88,8.02-4.83,16.12-9.09,23.11
			c-2.3,3.78-8.18,7.3-12.63,7.54c-23.96,1.28-48,2.5-71.97,1.85c-40.15-1.1-80.27-3.54-120.39-5.61
			C998.47,1777.63,987.17,1776.39,974.42,1775.33z"/>
		<path d="M1179.98,1014.6c-14.66,35.97-31.92,68.95-55.02,98.64c-45.06,57.91-99.13,104.82-166.13,135.92
			c-11.85,5.5-19.12,3.92-27.42-8.09c-5.77-8.35-10.61-17.59-14.34-27.03c-4.43-11.23-1.09-19.18,9.51-25.07
			c11.97-6.65,24.58-12.16,36.42-19c37.45-21.62,70.33-49.14,101.55-78.92c53.38-50.91,89.78-112.59,116.6-180.57
			c2.28-5.78,4.5-11.71,7.75-16.95c2.11-3.41,5.59-6.77,9.24-8.28c7.25-3.01,11.82,0.17,10.84,7.96
			c-1.9,15.04-4.77,29.97-7.62,44.87c-1.93,10.04-5.12,19.86-6.55,29.95c-0.58,4.11,0.83,9.55,3.32,12.9
			c20.24,27.16,39.7,55.03,61.78,80.64c42.24,48.99,92.25,89.04,148.66,120.8c12.7,7.15,26.41,12.49,39.54,18.91
			c11.6,5.67,12.91,8.94,8.75,21.34c-1.84,5.5-4.05,10.9-6.45,16.19c-4.43,9.75-7.86,10.99-18.52,7.87
			c-43.93-12.82-82.6-35.74-119.41-62.18c-52.62-37.8-89.16-88.85-119.13-145.26C1189.09,1031.3,1184.75,1023.41,1179.98,1014.6z"/>
		<path d="M1400.64,1730.34c0-12.6-0.19-24.75,0.03-36.89c0.7-38.04,1.37-76.08,2.42-114.11c0.68-24.58,1.86-49.15,3.08-73.71
			c0.64-12.84,5.3-20.27,12.58-20.15c11.59,0.19,11.67,10.25,12.78,17.57c4.64,30.63,9.25,61.31,12.2,92.13
			c2.49,25.98,2.82,52.18,3.81,78.3c1.01,26.78,2.02,53.56,2.4,80.35c0.68,48.72,0.87,97.45,1.32,146.17
			c0.51,54.62,1.38,109.24,1.48,163.85c0.03,18.65-0.76,37.43-3.17,55.9c-1.32,10.15-5.97,20.15-10.61,29.48
			c-4.42,8.91-13.96,8.02-21.35-2.95c-7.18-10.65-13.3-21.66-13.58-35.92c-0.99-50.76-3.94-101.48-5.13-152.23
			c-1.24-52.7-1.29-105.42-1.85-158.13c-0.04-3.71-0.01-7.41-0.01-12.02c-8.47-0.72-16.4-1.63-24.36-2.01
			c-28.3-1.38-56.65-1.99-84.87-4.25c-6.92-0.55-14.75-4.92-19.81-9.9c-6.42-6.32-4.44-11.63,4.43-14.23
			c12.47-3.66,25.21-6.52,37.95-9.16C1339.84,1742.35,1369.37,1736.59,1400.64,1730.34z"/>
		<path d="M1417.82,1408.81c-116.47,0.71-232.94,1.76-349.41,1.92c-33.63,0.04-67.3-2.01-100.89-4
			c-28.84-1.71-57.61-4.56-86.38-7.24c-7.71-0.72-15.17-2.41-19.44-10.55c-3.31-6.31-2.1-10.11,4.59-11.76
			c10.84-2.66,21.66-5.83,32.68-7.17c25.88-3.14,51.84-5.92,77.84-7.77c50.22-3.56,100.48-6.6,150.75-9.44
			c40.07-2.26,80.17-3.9,120.25-5.81c40.7-1.94,81.39-4.01,122.1-5.78c32.05-1.39,64.11-2.38,96.16-3.64
			c3.07-0.12,6.14-0.72,9.15-1.39c12.21-2.69,23.48,2.57,30.23,10.34c4.12,4.74,1.48,16.6-0.24,24.82
			c-1.61,7.65-5.97,14.74-9.22,22.02c-3.35,7.52-9.11,11.78-17.45,11.82c-20.24,0.1-40.49,0.03-60.73,0.03
			C1417.81,1406.42,1417.81,1407.62,1417.82,1408.81z"/>
	</g>
</g>
</svg>
