<?xml version="1.0" encoding="utf-8"?>
<!-- Generator: Adobe Illustrator 24.3.0, SVG Export Plug-In . SVG Version: 6.00 Build 0)  -->
<svg version="1.1" id="Calque_1" xmlns="http://www.w3.org/2000/svg" xmlns:xlink="http://www.w3.org/1999/xlink" x="0px" y="0px"
	 viewBox="0 0 1000 1000" style="enable-background:new 0 0 1000 1000;" xml:space="preserve">
<style type="text/css">
	.st0{fill:#757575;}
	.st1{fill:#FFFFFF;}
</style>
<path class="st0" d="M902.39,498.37c-0.6,16.86-0.98,33.08-1.81,49.28c-0.66,12.94-2.66,25.75-5.33,38.43
	c-8.93,42.45-22.3,83.47-40.08,123.04c-6.84,15.21-16.13,28.85-26.57,41.77c-22.53,27.89-49.23,51.04-79.53,70.11
	c-11.16,7.03-22.28,14.13-33.45,21.14c-12.71,7.97-26.38,14-40.33,19.4c-18.49,7.15-37.2,13.6-56.44,18.46
	c-12.8,3.24-25.73,5.73-38.87,7.11c-9.7,1.02-19.38,2.3-29.09,3.07c-5.4,0.43-10.86,0.19-16.29,0c-7.59-0.27-15.16-0.8-22.75-1.17
	c-17.92-0.88-35.67-2.96-53.19-6.91c-9.9-2.23-19.88-4.08-29.75-6.41c-17.3-4.08-34.03-9.96-50.46-16.68
	c-10.94-4.48-21.83-9.11-32.6-13.97c-13.15-5.94-25.44-13.44-37.17-21.81c-18.62-13.28-37.08-26.78-55.69-40.06
	c-9.91-7.07-18.58-15.4-26.21-24.83c-9.56-11.81-19.17-23.57-28.6-35.49c-8.27-10.45-14.75-22.04-20.78-33.89
	c-2.06-4.06-4.11-8.13-6.33-12.11c-4.54-8.13-8.13-16.64-10.99-25.49c-3.12-9.65-6.3-19.29-9.44-28.93
	c-2.36-7.24-3.6-14.74-4.85-22.22c-1.73-10.32-3.37-20.67-4.69-31.05c-1.27-9.99-2.24-20.02-3.07-30.05
	c-1.05-12.66-1.96-25.34-2.66-38.02c-0.62-11.34-0.57-22.69,0.57-34.02c1.99-19.73,5.17-39.29,8.36-58.85
	c2.12-12.99,6.07-25.47,10.77-37.73c4.44-11.56,8.86-23.13,13.32-34.68c2.72-7.04,6.29-13.66,10.43-19.94
	c9.73-14.75,19.53-29.45,29.36-44.13c9.94-14.86,21.99-27.83,35.62-39.35c16.31-13.78,32.55-27.64,49.62-40.5
	c7.18-5.41,14.91-9.88,22.84-14.06c11.66-6.15,23.27-12.4,35.38-17.65c14.17-6.14,28.67-11.36,43.66-15.1
	c17.28-4.32,34.58-8.59,51.93-12.62c9.28-2.16,18.77-3.09,28.28-3.64c7.02-0.41,14.06-0.53,21.09-0.7
	c13.82-0.33,27.61,0.39,41.39,1.2c37.88,2.2,75.17,8.02,111.49,19.2c33.5,10.32,64.52,25.69,92.62,46.78
	c9.87,7.4,18.92,15.76,27.97,24.11c19.24,17.76,37.09,36.85,53.88,56.93c9.78,11.7,17.69,24.67,25.36,37.8
	c16.68,28.58,30.92,58.29,41.77,89.59c4.62,13.33,8.22,26.9,9.99,40.9c0.53,4.19,0.75,8.44,0.85,12.67
	c0.25,10.15,0.37,20.3,0.51,30.45C902.44,491.5,902.39,495.25,902.39,498.37z M153.45,499.53c-0.07,0-0.13,0-0.2,0
	c0,6.32-0.04,12.63,0.01,18.95c0.11,13.62,1.28,27.16,3.75,40.54c2.22,12.01,4.73,23.98,7.48,35.89
	c4.1,17.75,8.52,35.43,15.85,52.22c3.96,9.08,7.38,18.41,11.71,27.3c9.49,19.51,21.52,37.39,35.88,53.68
	c10.73,12.18,21.47,24.37,33.43,35.37c20.09,18.49,42.09,34.41,66.01,47.56c20.45,11.24,41.36,21.6,62.54,31.38
	c8.12,3.75,16.21,7.62,24.83,10.11c13.35,3.85,26.71,7.7,40.13,11.3c13.08,3.51,26.41,5.57,39.98,6.01
	c6.31,0.2,12.6,0.74,18.91,1.12c12.31,0.75,24.6,0.75,36.89-0.51c4.76-0.49,9.57-0.58,14.36-0.85c2.95-0.16,5.94-0.04,8.83-0.52
	c8.43-1.4,16.82-3.07,25.23-4.59c16.56-2.99,32.7-7.45,48.3-13.8c13.69-5.57,27.34-11.24,41.02-16.83
	c12.43-5.07,23.78-12.06,34.94-19.41c16.58-10.93,32.2-23.14,47.72-35.5c10.65-8.48,20.99-17.35,29.9-27.65
	c7.63-8.82,14.7-18.13,21.83-27.37c7.18-9.3,12.39-19.71,17.07-30.46c7.72-17.73,15.81-35.29,22.19-53.57
	c3.5-10.03,7.16-19.99,9.04-30.52c2.73-15.25,5.79-30.45,8.39-45.73c1.66-9.76,2.91-19.6,4.02-29.44c0.78-6.9,1.23-13.85,1.45-20.8
	c0.3-9.1,0.28-18.22,0.3-27.33c0.02-8.23-0.04-16.46-0.16-24.68c-0.04-2.87-0.1-5.77-0.56-8.59c-1.39-8.52-2.97-17-4.48-25.49
	c-2.68-15.06-6.32-29.85-12.4-43.95c-5-11.6-10.41-23.01-16.54-34.06c-10.75-19.38-22.64-38.06-35.11-56.37
	c-9.39-13.78-19.76-26.71-31.8-38.32c-11.34-10.94-22.92-21.6-34.74-32.03c-21.25-18.76-44.84-33.91-70.51-45.88
	c-17.36-8.1-35.45-14.13-53.88-19.22c-14.05-3.88-28.29-6.75-42.83-7.98c-11.39-0.96-22.8-1.67-34.19-2.65
	c-13.98-1.2-27.95-0.81-41.93-0.15c-2.76,0.13-5.66,1.14-8.36-0.51c-0.16-0.1-0.46,0.04-0.7,0.07c-1.35,0.16-2.7,0.33-4.05,0.49
	c-8.33,1.03-16.65,2.1-24.99,3.1c-7.3,0.88-14.63,1.53-21.92,2.54c-22.76,3.17-44.71,9.35-65.86,18.29
	c-18.77,7.94-37.03,16.99-55.2,26.2c-15.47,7.84-29.86,17.31-42.85,28.87c-4.12,3.66-8.38,7.2-12.82,10.46
	c-6.2,4.56-12.07,9.48-17.43,15.01c-5.01,5.17-9.87,10.48-14.98,15.54c-5.6,5.55-10.22,11.86-14.64,18.33
	c-0.95,1.39-1.9,2.77-2.91,4.11c-14.5,19.32-26.57,40.08-36.77,61.96c-10.97,23.53-19.1,47.91-22.7,73.71
	c-1.29,9.26-2.89,18.47-4.09,27.74c-0.83,6.41-1.47,12.87-1.76,19.32C153.69,481.15,153.65,490.34,153.45,499.53z"/>
<path class="st1" d="M153.45,499.53c0.2-9.19,0.24-18.38,0.66-27.56c0.3-6.45,0.93-12.91,1.76-19.32c1.2-9.27,2.8-18.48,4.09-27.74
	c3.6-25.8,11.72-50.18,22.7-73.71c10.2-21.88,22.27-42.64,36.77-61.96c1.01-1.34,1.96-2.72,2.91-4.11
	c4.42-6.48,9.04-12.78,14.64-18.33c5.11-5.06,9.97-10.38,14.98-15.54c5.35-5.53,11.22-10.45,17.43-15.01
	c4.44-3.26,8.7-6.79,12.82-10.46c12.99-11.56,27.37-21.03,42.85-28.87c18.17-9.21,36.43-18.26,55.2-26.2
	c21.15-8.94,43.1-15.12,65.86-18.29c7.28-1.01,14.61-1.66,21.92-2.54c8.33-1,16.66-2.06,24.99-3.1c1.35-0.17,2.7-0.33,4.05-0.49
	c0.24-0.03,0.54-0.17,0.7-0.07c2.69,1.65,5.59,0.65,8.36,0.51c13.98-0.67,27.95-1.06,41.93,0.15c11.39,0.98,22.8,1.7,34.19,2.65
	c14.54,1.22,28.78,4.1,42.83,7.98c18.43,5.08,36.52,11.12,53.88,19.22c25.67,11.97,49.26,27.13,70.51,45.88
	c11.81,10.42,23.39,21.09,34.74,32.03c12.04,11.61,22.41,24.54,31.8,38.32c12.47,18.31,24.36,36.99,35.11,56.37
	c6.13,11.05,11.54,22.46,16.54,34.06c6.08,14.1,9.73,28.89,12.4,43.95c1.51,8.5,3.1,16.98,4.48,25.49c0.46,2.82,0.52,5.72,0.56,8.59
	c0.11,8.23,0.18,16.46,0.16,24.68c-0.02,9.11,0,18.23-0.3,27.33c-0.23,6.94-0.67,13.9-1.45,20.8c-1.11,9.84-2.36,19.68-4.02,29.44
	c-2.6,15.28-5.66,30.47-8.39,45.73c-1.88,10.52-5.54,20.48-9.04,30.52c-6.38,18.28-14.48,35.84-22.19,53.57
	c-4.68,10.75-9.89,21.16-17.07,30.46c-7.13,9.24-14.2,18.55-21.83,27.37c-8.91,10.3-19.25,19.17-29.9,27.65
	c-15.52,12.36-31.14,24.57-47.72,35.5c-11.16,7.35-22.52,14.34-34.94,19.41c-13.68,5.59-27.33,11.26-41.02,16.83
	c-15.6,6.35-31.74,10.81-48.3,13.8c-8.41,1.52-16.8,3.19-25.23,4.59c-2.89,0.48-5.89,0.36-8.83,0.52
	c-4.79,0.27-9.59,0.36-14.36,0.85c-12.29,1.25-24.58,1.26-36.89,0.51c-6.3-0.39-12.6-0.92-18.91-1.12
	c-13.57-0.44-26.9-2.5-39.98-6.01c-13.42-3.6-26.78-7.45-40.13-11.3c-8.62-2.49-16.71-6.37-24.83-10.11
	c-21.19-9.78-42.1-20.14-62.54-31.38c-23.92-13.15-45.92-29.08-66.01-47.56c-11.96-11-22.7-23.19-33.43-35.37
	c-14.36-16.29-26.39-34.18-35.88-53.68c-4.33-8.89-7.75-18.23-11.71-27.3c-7.32-16.79-11.75-34.46-15.85-52.22
	c-2.75-11.91-5.26-23.88-7.48-35.89c-2.47-13.38-3.64-26.92-3.75-40.54c-0.05-6.32-0.01-12.63-0.01-18.95
	C153.32,499.53,153.39,499.53,153.45,499.53z M878.08,490.17c0.04,0,0.08,0,0.12,0c0-1.44,0-2.88,0-4.32
	c-0.02-8.07,0.02-16.14-0.09-24.21c-0.04-3.1-0.21-6.24-0.7-9.3c-1.23-7.57-2.72-15.1-4.03-22.65
	c-2.65-15.23-6.32-30.18-12.52-44.41c-4.73-10.85-9.8-21.54-15.52-31.9c-11.03-19.96-23.28-39.16-36.17-57.96
	c-8.25-12.03-17.26-23.42-27.72-33.64c-11.1-10.84-22.51-21.34-34.07-31.69c-21.31-19.07-44.91-34.62-70.8-46.74
	c-19.46-9.11-39.8-15.71-60.6-20.97c-11.56-2.93-23.27-5.02-35.18-5.94c-8.53-0.66-17.05-1.45-25.58-2.09
	c-9.89-0.74-19.78-1.54-29.7-1.28c-8.87,0.23-17.73,0.68-26.6,0.98c-2.78,0.1-5.58-0.15-8.33,0.12c-5.33,0.52-10.63,1.32-15.95,1.95
	c-8.65,1.02-17.33,1.85-25.97,3c-21.82,2.89-42.91,8.62-63.23,17.04c-20.31,8.42-40,18.18-59.54,28.24
	c-12.33,6.35-23.99,13.77-34.53,22.83c-7.28,6.26-14.58,12.48-22.38,18.1c-2.39,1.72-4.67,3.67-6.75,5.75
	c-6.32,6.34-12.41,12.91-18.81,19.17c-5.64,5.52-10.45,11.66-14.85,18.16c-1.21,1.79-2.45,3.55-3.75,5.28
	c-16.74,22.41-30.26,46.63-41.05,72.41c-5.93,14.18-11.22,28.57-13.93,43.76c-2.08,11.64-4.05,23.3-5.87,34.98
	c-1.08,6.94-2,13.93-2.59,20.93c-0.47,5.49-0.3,11.02-0.47,16.54c-0.44,14.54-1.35,29.08-0.42,43.62c0.53,8.29,1.3,16.57,2.3,24.81
	c1.46,11.99,4.07,23.78,6.86,35.52c2.77,11.66,5.64,23.3,8.78,34.86c3.74,13.76,9.59,26.78,15.13,39.86
	c9.99,23.61,23.9,44.8,40.92,63.97c9.72,10.94,19.37,21.95,30.09,31.94c19.62,18.29,41.15,34.04,64.58,47.1
	c20.46,11.4,41.48,21.7,62.69,31.63c10.36,4.85,20.83,9.38,31.9,12.41c10.25,2.8,20.47,5.71,30.72,8.49
	c8.18,2.22,16.45,4.16,24.88,5.02c8.98,0.91,18.01,1.39,27.01,2.01c4.23,0.29,8.46,0.63,12.69,0.67c7.43,0.08,14.87,0.09,22.29-0.11
	c8.94-0.25,17.82-1.88,26.81-1.47c1.42,0.06,2.88-0.14,4.29-0.39c8.26-1.47,16.52-2.96,24.77-4.49
	c14.72-2.72,29.21-6.32,43.13-11.88c12.54-5,25.02-10.14,37.49-15.31c6.12-2.54,12.27-5.05,18.21-7.97
	c10.21-5.02,19.65-11.36,29.03-17.75c16.07-10.96,31.3-23.04,46.42-35.26c7.79-6.29,15.05-13.16,21.98-20.38
	c2.6-2.71,5.03-5.59,7.38-8.52c4.8-5.99,9.51-12.06,14.24-18.1c7.59-9.7,13.36-20.4,18.28-31.67c8.61-19.7,17.45-39.28,24.35-59.67
	c2.05-6.06,4.24-12.06,5.51-18.35c4.41-21.77,8.52-43.6,11.77-65.58c1.64-11.08,2.68-22.22,3.03-33.41
	C878.28,506,878.08,498.08,878.08,490.17z"/>
<path class="st0" d="M878.08,490.17c0,7.91,0.2,15.83-0.05,23.73c-0.35,11.19-1.4,22.33-3.03,33.41
	c-3.25,21.98-7.36,43.81-11.77,65.58c-1.27,6.28-3.46,12.29-5.51,18.35c-6.9,20.39-15.74,39.98-24.35,59.67
	c-4.93,11.28-10.7,21.98-18.28,31.67c-4.73,6.05-9.43,12.12-14.24,18.1c-2.35,2.93-4.78,5.81-7.38,8.52
	c-6.93,7.21-14.19,14.08-21.98,20.38c-15.12,12.22-30.34,24.3-46.42,35.26c-9.38,6.4-18.82,12.73-29.03,17.75
	c-5.94,2.92-12.09,5.44-18.21,7.97c-12.47,5.17-24.95,10.31-37.49,15.31c-13.93,5.56-28.42,9.16-43.13,11.88
	c-8.25,1.52-16.51,3.02-24.77,4.49c-1.41,0.25-2.87,0.46-4.29,0.39c-8.99-0.41-17.86,1.22-26.81,1.47
	c-7.43,0.21-14.86,0.2-22.29,0.11c-4.23-0.05-8.46-0.38-12.69-0.67c-9.01-0.62-18.03-1.1-27.01-2.01c-8.44-0.86-16.7-2.8-24.88-5.02
	c-10.25-2.78-20.47-5.69-30.72-8.49c-11.07-3.03-21.54-7.56-31.9-12.41c-21.21-9.92-42.24-20.23-62.69-31.63
	c-23.43-13.05-44.96-28.8-64.58-47.1c-10.72-9.99-20.37-21-30.09-31.94c-17.02-19.16-30.93-40.36-40.92-63.97
	c-5.54-13.08-11.39-26.1-15.13-39.86c-3.14-11.56-6.01-23.2-8.78-34.86c-2.79-11.74-5.41-23.53-6.86-35.52
	c-1-8.24-1.78-16.53-2.3-24.81c-0.92-14.54-0.01-29.08,0.42-43.62c0.17-5.51,0-11.05,0.47-16.54c0.6-7,1.51-13.99,2.59-20.93
	c1.82-11.68,3.79-23.34,5.87-34.98c2.71-15.19,8-29.58,13.93-43.76c10.79-25.78,24.31-50.01,41.05-72.41
	c1.29-1.73,2.54-3.5,3.75-5.28c4.4-6.5,9.21-12.65,14.85-18.16c6.4-6.26,12.49-12.83,18.81-19.17c2.08-2.09,4.36-4.03,6.75-5.75
	c7.8-5.62,15.1-11.84,22.38-18.1c10.55-9.07,22.2-16.49,34.53-22.83c19.54-10.06,39.23-19.82,59.54-28.24
	c20.32-8.42,41.41-14.15,63.23-17.04c8.64-1.15,17.31-1.98,25.97-3c5.32-0.62,10.62-1.43,15.95-1.95c2.75-0.27,5.55-0.02,8.33-0.12
	c8.87-0.31,17.73-0.75,26.6-0.98c9.92-0.26,19.82,0.54,29.7,1.28c8.53,0.64,17.05,1.43,25.58,2.09c11.91,0.92,23.62,3.01,35.18,5.94
	c20.79,5.26,41.13,11.86,60.6,20.97c25.88,12.12,49.49,27.67,70.8,46.74c11.56,10.35,22.97,20.84,34.07,31.69
	c10.46,10.22,19.47,21.61,27.72,33.64c12.89,18.8,25.15,38,36.17,57.96c5.72,10.36,10.79,21.05,15.52,31.9
	c6.2,14.23,9.87,29.17,12.52,44.41c1.31,7.56,2.8,15.08,4.03,22.65c0.5,3.06,0.66,6.19,0.7,9.3c0.11,8.07,0.07,16.14,0.09,24.21
	c0,1.44,0,2.88,0,4.32C878.16,490.17,878.12,490.17,878.08,490.17z M525.28,718.26c-0.19-0.06-0.37-0.11-0.56-0.17
	c0-0.7-0.04-1.39,0.01-2.09c0.71-10.53,1.38-21.05,2.15-31.58c0.6-8.21,1.31-16.41,2.01-24.61c0.87-10.27,1.79-20.54,2.68-30.81
	c0.86-9.87,1.71-19.75,2.59-29.62c1.02-11.38,2.1-22.76,3.11-34.15c0.89-9.95,1.74-19.91,2.6-29.86
	c1.06-12.18,2.16-24.36,3.16-36.55c0.92-11.15,1.8-22.31,2.57-33.47c0.86-12.52,1.64-25.04,2.33-37.56
	c0.31-5.66,0.58-11.34-0.51-16.97c-1.99-10.33-6.06-19.67-13.06-27.62c-2.3-2.61-4.96-4.8-8.13-6.23c-8.73-3.93-17-2.52-24.38,3.1
	c-8.28,6.3-12.04,15.11-12.41,25.4c-0.11,3.05,0.43,5.99,1.73,8.85c1.81,4,3.33,8.13,4.98,12.2c2.3,5.65,3.18,11.53,2.81,17.6
	c-0.47,7.74-0.93,15.48-1.5,23.21c-0.63,8.69-1.36,17.37-2.06,26.05c-0.73,9-1.49,18-2.23,27c-0.73,8.92-1.43,17.84-2.15,26.77
	c-0.72,9-1.45,18-2.17,27.01c-0.72,8.92-1.43,17.85-2.15,26.77c-0.71,8.76-1.45,17.52-2.16,26.29c-0.71,8.68-1.42,17.37-2.1,26.05
	c-0.76,9.8-1.51,19.6-2.22,29.41c-0.62,8.53-1.4,17.04-2.79,25.49c-0.68,4.17-1.26,8.39-1.41,12.61
	c-0.33,9.38,1.68,18.42,4.63,27.27c1.32,3.96,3.12,7.71,5.48,11.16c5.41,7.91,12.68,12.66,22.44,13.31
	c5.98,0.4,11.59-0.89,17.01-3.26c9.79-4.29,18.71-10.07,27.26-16.42c3.74-2.78,7.11-5.96,10.03-9.59c7.38-9.17,9.62-19.3,5.64-30.55
	c-1.56-4.41-4.09-8.13-8.21-10.58c-6.82-4.05-15.62-3.39-22.31,1.65c-3.69,2.78-6.59,6.27-9.29,9.96
	C527.61,715.25,526.43,716.75,525.28,718.26z M530.96,321.1c3.73-0.42,7.48-0.68,11.18-1.28c11.16-1.82,19.29-7.83,23.9-18.18
	c4.47-10.05,5.54-20.71,3.74-31.46c-1.84-10.98-8.42-18.05-19.44-20.57c-7-1.6-13.98-1.36-20.83,0.86
	c-10.5,3.41-18.66,9.99-24.91,18.97c-5.83,8.39-7,17.64-4.67,27.47C503.08,310.19,517.29,322.57,530.96,321.1z"/>
<path class="st1" d="M525.28,718.26c1.15-1.51,2.33-3.01,3.45-4.54c2.7-3.69,5.6-7.19,9.29-9.96c6.69-5.04,15.49-5.7,22.31-1.65
	c4.12,2.45,6.65,6.16,8.21,10.58c3.98,11.25,1.74,21.38-5.64,30.55c-2.92,3.64-6.29,6.82-10.03,9.59
	c-8.55,6.35-17.47,12.13-27.26,16.42c-5.41,2.37-11.03,3.66-17.01,3.26c-9.76-0.65-17.03-5.39-22.44-13.31
	c-2.36-3.45-4.16-7.2-5.48-11.16c-2.96-8.85-4.97-17.89-4.63-27.27c0.15-4.22,0.73-8.44,1.41-12.61c1.38-8.45,2.17-16.96,2.79-25.49
	c0.71-9.8,1.46-19.61,2.22-29.41c0.68-8.69,1.39-17.37,2.1-26.05c0.71-8.76,1.45-17.52,2.16-26.29c0.73-8.92,1.43-17.84,2.15-26.77
	c0.72-9,1.45-18,2.17-27.01c0.72-8.92,1.42-17.85,2.15-26.77c0.73-9,1.5-18,2.23-27c0.7-8.68,1.43-17.37,2.06-26.05
	c0.56-7.73,1.03-15.47,1.5-23.21c0.37-6.07-0.52-11.95-2.81-17.6c-1.65-4.07-3.17-8.2-4.98-12.2c-1.29-2.85-1.84-5.8-1.73-8.85
	c0.37-10.29,4.14-19.11,12.41-25.4c7.38-5.61,15.65-7.03,24.38-3.1c3.17,1.43,5.84,3.63,8.13,6.23c7,7.95,11.07,17.29,13.06,27.62
	c1.08,5.63,0.82,11.31,0.51,16.97c-0.69,12.53-1.47,25.05-2.33,37.56c-0.77,11.16-1.65,22.32-2.57,33.47
	c-1,12.19-2.1,24.37-3.16,36.55c-0.86,9.95-1.71,19.91-2.6,29.86c-1.02,11.38-2.09,22.76-3.11,34.15
	c-0.89,9.87-1.73,19.75-2.59,29.62c-0.9,10.27-1.81,20.54-2.68,30.81c-0.7,8.2-1.41,16.4-2.01,24.61
	c-0.77,10.52-1.45,21.05-2.15,31.58c-0.05,0.69-0.01,1.39-0.01,2.09C524.9,718.15,525.09,718.21,525.28,718.26z"/>
<path class="st1" d="M530.96,321.1c-13.66,1.47-27.88-10.91-31.03-24.19c-2.33-9.83-1.16-19.08,4.67-27.47
	c6.24-8.98,14.41-15.56,24.91-18.97c6.84-2.22,13.83-2.47,20.83-0.86c11.02,2.52,17.6,9.6,19.44,20.57
	c1.8,10.75,0.74,21.4-3.74,31.46c-4.61,10.35-12.74,16.36-23.9,18.18C538.44,320.42,534.68,320.68,530.96,321.1z"/>
</svg>
