<?xml version="1.0" encoding="utf-8"?>
<!-- Generator: Adobe Illustrator 24.3.0, SVG Export Plug-In . SVG Version: 6.00 Build 0)  -->
<svg version="1.1" id="Calque_1" xmlns="http://www.w3.org/2000/svg" xmlns:xlink="http://www.w3.org/1999/xlink" x="0px" y="0px"
	 viewBox="0 0 1000 1000" style="enable-background:new 0 0 1000 1000;" xml:space="preserve">
<g>
	<g>
		<path d="M988.6,549c-1.5,3.5-3.8,6.6-5.9,9.7c-11.8,16.8-24.8,32.6-38,48.2c-28.2,33.4-57.9,65.4-88,97
			c-26.4,27.8-53.6,54.9-81,81.8c-49.8,48.8-100.7,96.5-152.3,143.4c-6.4,5.8-12.9,11.5-19.2,17.4c-3.5,3.2-7.4,6-10,10.1
			c-1.3,2.1-3.6,3.6-5.5,5.4c-3.3-1.2-5.9-3.3-8.4-5.4c-1.2-1-2.2-2.3-3.5-3.2c-22-15.2-44-30.3-66-45.4c-1-0.7-2.2-1.3-3.4-2.1
			c-1.4,0.9-2.8,1.7-4.1,2.6c-17.5,11.8-35,23.6-52.5,35.4c-0.7,0.4-1.3,1-2,1.3c-6.6,2.8-11.5,8-17.1,12.2c-1.4,1-2.8,2.1-4.4,3.3
			c-3.4-1.9-6.2-4.5-9.3-6.7c-2.2-5.2-7.1-8-11.1-11.6c-40.6-37.1-81.4-74-121.1-112.2c-23.4-22.5-46.7-45.1-69.8-67.9
			c-41.8-41.2-82.5-83.5-121.7-127.3c-18.8-21-37.1-42.3-54.2-64.7c-5.1-6.7-10-13.7-14.8-20.7c-4.4-6.5-8.5-13.2-11.3-20.6
			c-0.3-0.8-0.8-1.3-1.7-1.3c0-1.6,0-3.2,0-4.8c0.6-0.5,1.3-1,1.7-1.6c1.5-2.3,2.7-4.7,4.3-6.9c25.4-34.4,52.2-67.6,79.5-100.5
			c43.8-52.8,88.9-104.6,134.1-156.2c56-63.8,112.8-127,170-189.8c5.5-6,12-11,18-16.5c3.3,1.6,6.3,3,9,4.9c1.7,1.2,3.5,2.4,5.4,3.2
			c3.2,1.3,5.9,3.2,8.5,5.3c18.1,14.2,36.3,28.4,54.4,42.6c1.2,1,2.5,1.9,3.8,2.9c2.2-0.7,3.7-2.2,5.3-3.4
			c14.8-11.4,29.6-22.9,44.4-34.4c7.1-5.5,13.9-11.3,21-16.7c3.8-2.9,8-5.2,12.1-7.8c2.9,2,4.8,4.6,7,6.9c1.8,5.6,6.5,8.9,10.1,13
			c69.4,76.3,138.2,153.2,206,231c43.7,50.2,86.9,100.8,128.8,152.5c17,21,33.8,42.2,49.6,64.1c1.1,1.5,2.2,3.1,3.3,4.6
			C988.6,529.8,988.6,539.4,988.6,549z M26.3,532.4c2.2,1.9,3.9,3.4,5.6,4.8c22.5,17.7,44.9,35.5,67.6,53
			c47.7,36.7,95.5,73.2,143.3,109.7c20.3,15.5,40.5,31.4,61.2,46.4c66.3,48.1,132.8,95.9,199.3,143.7c0.5,0.4,1,0.8,1.5,1.2
			c1.3,0.9,2.6,1.1,4,0.2c1.5-1,3-1.8,4.4-2.8c18.4-12.8,36.8-25.5,55-38.5c35.4-25.3,70.6-50.8,106-76.2
			c27.4-19.7,54.9-39.3,81.8-59.7c55.6-42.3,111.3-84.6,166.9-127c19-14.5,37.7-29.1,56.6-43.7c1.6-1.3,3.4-2.3,4.5-4.6
			c-1.1-1.1-2.2-2.3-3.4-3.3c-28.6-26.3-57.7-52.2-87-77.7c-47.1-40.9-94-82-141.1-123c-15.2-13.2-30.3-26.6-45.8-39.5
			c-48.6-40.4-97.4-80.6-146.2-120.7c-18.3-15-36.8-29.8-55.3-44.6c-1.2-1-2.3-2.2-4.5-2.2c-1.3,1-2.9,2.1-4.3,3.3
			c-21.6,17.6-43.2,35.1-64.7,52.8c-34.4,28.2-68.7,56.5-102.9,84.9c-21.8,18.1-43.7,36-65.1,54.6c-51.6,44.8-102.8,90-154.2,135
			c-26,22.8-51.8,45.8-77.7,68.7C30.1,528.5,28.5,530.3,26.3,532.4z M419.2,63.3c-2,2.2-3.7,3.9-5.3,5.7
			c-45.9,50.4-91.8,100.7-137.6,151.2c-21.1,23.2-42.1,46.4-62.3,70.4c-49.7,59-98.8,118.4-147.6,178.1
			c-6.1,7.4-11.8,15.2-17.6,22.8c-1,1.4-2.3,2.7-2.5,4.6c2.4,1.6,4.8,1.5,7.1-0.1c1.6-1.1,3-2.4,4.4-3.7
			c32.9-28.5,65.8-56.9,98.6-85.5c51.1-44.6,102.1-89.3,153-134.2c40-35.2,80.2-70.1,121.6-103.6c19-15.4,37.9-31,56.8-46.5
			c1.1-0.9,2.6-1.4,2.7-3.7C467.5,100,443.7,81.7,419.2,63.3z M954.5,499.3c2.2-3,1.9-5.4,0-7.8c-4-5.2-7.8-10.5-11.9-15.6
			c-7.6-9.5-15.3-18.9-23-28.3c-28.3-34.5-56.3-69.2-84.9-103.6c-43.2-52.1-88.1-102.7-133.8-152.6c-28.2-30.8-56.5-61.5-84.7-92.3
			c-9.6-10.5-19-21.2-28.6-31.8c-1.3-1.4-2.4-3-4.3-3.9c-1.5,1.1-2.9,2.1-4.3,3.2c-13.4,10.4-26.8,20.8-40.2,31.2
			c-8,6.2-16,12.3-23.9,18.5c-1.1,0.8-2.5,1.5-2.5,3.6c2.5,2.1,5.2,4.4,7.9,6.6c12.1,9.7,24.2,19.4,36.3,29.2
			c36.4,29.3,72.3,59.2,107.2,90.2c29.2,25.9,58.3,51.9,87.6,77.7c41.3,36.2,82.7,72.2,124.1,108.2c24.6,21.4,49.3,42.7,74,64.1
			C951.1,497,952.5,498.4,954.5,499.3z M588.9,948.7c2.2-1.3,3.7-3,5.3-4.5c36.5-34.8,72.9-69.6,109.4-104.3
			c27.2-25.9,54.6-51.7,81.1-78.4c17.9-18.1,35.8-36.1,53.3-54.6c37.5-39.6,74.8-79.4,112.2-119.1c3.4-3.6,6.5-7.5,9.6-11.3
			c0.7-0.8,1.2-1.9,1.7-2.7c-2.1-2.8-2.5-3-4.7-2c-1.4,0.7-2.8,1.6-4,2.6c-23,17.3-46.1,34.5-69.1,51.8
			c-55.3,41.9-110.8,83.7-165.8,126C671.3,788,624.5,823.3,576.4,857c-18.1,12.7-36,25.6-53.9,38.4c-1.8,1.3-3.7,2.5-5.1,4.6
			C541.3,916.3,565,932.5,588.9,948.7z M425.1,947.8c1.8-1.2,3.2-2,4.5-2.9c7.8-5.3,15.7-10.5,23.5-15.8c13.4-9,26.8-18.1,40.2-27.1
			c1.1-0.8,2.7-1.2,2.9-3.2c-0.8-0.7-1.7-1.7-2.7-2.4c-5.2-3.8-10.3-7.6-15.5-11.3c-47.3-32.8-93.8-66.8-139.2-102.2
			C289.2,744.5,240,705.7,190,667.8c-43.8-33.2-87.6-66.6-131.4-99.9c-2.2-1.6-4.4-3.3-6.6-4.8c-0.4-0.3-1.1-0.4-1.6-0.6
			c-0.4,1.3,0.3,2,0.8,2.8c4.3,7.6,9.4,14.5,15.3,20.8c26.7,28.5,53.3,57.1,79.9,85.6c29.9,31.9,60,63.4,90.8,94.4
			c25.7,25.9,51.9,51.2,78.2,76.5c34.8,33.5,69.6,67,104.4,100.5C421.5,944.5,423.2,946,425.1,947.8z"/>
		<path d="M504.9,645.8c-13.6,1.2-25.7-1.5-37.8-4.7c-12.5-3.3-24.8-7.4-36.4-13.3c-21.3-10.7-38-26.3-49.7-47.2
			c-9.2-16.4-16.5-33.5-20.7-51.9c-2-8.9-2.8-18-3.4-27.1c-0.2-3.3-0.4-6.7-0.7-10c-2.1-21.9,2.4-42.3,13.2-61.4
			c7.6-13.5,16.2-26.4,24.9-39.3c4.4-6.5,10-12.1,16.3-16.8c5.6-4.2,11.3-8.4,17.1-12.4c4.2-2.9,8.7-5.4,13.2-7.9
			c4.3-2.4,8.7-4.7,13.1-7c13.7-7.2,28.1-12.3,43.4-14.5c9.4-1.3,18.8-1.5,28.2-0.5c16.8,1.8,33.2,5.2,48.7,11.9
			c9.1,3.9,17.9,8.6,26.7,13c3.4,1.7,6.6,3.8,10,5.7c7.1,3.9,13.2,8.9,18.7,14.8c8.8,9.5,17.1,19.4,25,29.8
			c9.9,13.1,16.1,27.9,19,44c1.6,8.7,2.4,17.4,2.8,26.2c0.5,10.6-1,21.1-3.1,31.4c-3.9,18.8-9.5,37.1-16.9,54.9
			c-7.9,19-20.1,34.8-35.3,48.4c-4.1,3.7-8.6,6.7-13.4,9.2c-17.5,9.1-35.8,16.2-55.2,20.3c-8,1.7-16.1,2.7-24.2,3.4
			c-3.8,0.3-7.7,0.7-11.5,0.8C512.6,645.9,508.3,645.8,504.9,645.8z M664.6,471.9c-0.2-3.5-0.4-7-0.7-10.5c-0.5-5.9-1-11.8-2.9-17.5
			c-2.2-6.8-4.4-13.7-6.7-20.5c-0.6-1.7-1.2-3.3-2.2-4.8c-4.6-7.3-9.4-14.5-15.1-21c-1.8-2.1-3.7-4-5.7-5.8
			c-4.4-3.8-8.8-7.4-13.3-11c-9.4-7.6-19.5-13.9-30.6-18.6c-1.5-0.6-2.9-1.3-4.3-2c-12.7-6.9-26.3-11.5-40.2-15.3
			c-9-2.4-18.2-3.7-27.5-3.2c-4.1,0.2-8.3,0.5-12.4,1.1c-8.9,1.2-17.7,2.7-26.3,5.2c-11.7,3.5-22.5,9.1-32.7,15.9
			c-12.5,8.4-24.4,17.6-34.1,29.2c-1.5,1.8-3.5,3.3-5.1,5c-3,3.1-6.3,6-8.8,9.4c-6,8.1-11.5,16.6-16,25.6c-2.3,4.7-4.3,9.6-5.9,14.6
			c-2.1,6.5-3.8,13.2-5.4,19.9c-1.7,7.2-1.9,14.6-1,21.9c0.8,7,1.7,14,2.7,20.9c1.2,8.6,3.1,17,6.5,25c3.3,7.6,6.4,15.4,9.9,22.9
			c3.4,7.4,7.1,14.7,10.9,21.9c6.2,11.6,14.7,21.3,24.7,29.6c5.1,4.2,10.7,7.6,16.8,10c10,3.9,20,7.7,30,11.4
			c12.2,4.5,24.8,6.4,37.7,4.5c14.1-2.1,28.1-4.3,42-7.2c19.5-4,37.8-11.6,55.3-21.2c6-3.3,10.9-7.7,15-13.2c3-3.9,6.3-7.7,9.6-11.3
			c3.5-3.8,6.5-7.8,8.9-12.4c10.7-21,18.2-43.3,23.8-66.2C664.3,493.7,665.3,482.9,664.6,471.9z"/>
	</g>
</g>
</svg>
