<?xml version="1.0" encoding="utf-8"?>
<!-- Generator: Adobe Illustrator 24.3.0, SVG Export Plug-In . SVG Version: 6.00 Build 0)  -->
<svg version="1.1" id="Calque_1" xmlns="http://www.w3.org/2000/svg" xmlns:xlink="http://www.w3.org/1999/xlink" x="0px" y="0px"
	 viewBox="0 0 1000 1000" style="enable-background:new 0 0 1000 1000;" xml:space="preserve">
<style type="text/css">
	.st0{fill:none;stroke:#FFFFFF;stroke-width:5;stroke-miterlimit:10;}
	.st1{fill:#FFFFFF;}
</style>
<line class="st0" x1="391.5" y1="987.7" x2="433" y2="961.2"/>
<g>
	<g>
		<path d="M376.8,988.8c-3.8-0.2-7.7-0.2-11.5-0.2c-0.7,0-1.5-0.2-2.5-0.3c0.6-1.7,1.9-2.1,2.8-2.8c9-6.1,18.1-12.1,27.1-18.2
			c6.6-4.5,13.3-8.9,19.9-13.3c1-0.7,2-1.5,3.3-2.5c-1.5-1.4-2.7-2.5-4-3.7c-23.9-21.8-47.8-43.5-71.6-65.4
			c-34.2-31.6-67.9-63.7-101.2-96.2c-40.4-39.5-80.1-79.7-118.5-121.1c-25.2-27.2-50-54.9-73.2-83.8c-9.2-11.5-18.1-23.2-26.1-35.6
			c-3.2-5-6.1-10.1-8.5-15.5c-2.2-4.9-2-9.3,1.3-13.9c14.9-20.2,30.3-40.1,46-59.7c41.7-51.9,84.9-102.5,128.6-152.7
			C260.2,221.6,332.8,140.5,406.3,60c1.2-1.3,2.3-2.6,3.6-4c-3.6-3.3-7.5-5.8-11.1-8.6c-3.7-2.8-7.5-5.5-11.2-8.3
			c-3.9-2.9-7.7-5.7-11.6-8.6c-3.7-2.8-7.5-5.5-11.2-8.3c-3.6-2.7-7.4-5.4-11.2-8.4c3.9-0.9,10.9-1.1,19.1-0.5
			c7.2,6.4,15.4,11.7,23.2,17.5c6.1,4.6,12.4,9.1,18.6,13.6c1.1,0.8,2.3,1.7,3.4,2.4c1.8-0.3,2.5-1.7,3.4-2.8
			c7.9-9,15.8-18.1,23.6-27.2c1-1.2,2.1-2.4,3.1-3.5c4.7-0.6,10.6-0.6,14.3,0.1c0.2,1.1-0.7,1.6-1.3,2.3c-0.6,0.7-1.3,1.4-2,2.1
			c-9.8,10.3-19.6,20.6-29.4,31c-1.1,1.2-2.1,2.4-3,3.4c0.1,0.5,0.1,0.6,0.1,0.7c0.1,0.1,0.2,0.3,0.3,0.4
			c23.7,18.5,47.4,37,71.1,55.6c0.4,0.3,0.8,0.5,1.2,0.7c3.8-2.2,70.2-54.1,73.1-57.2c-1.7-2.5-4-4.4-6-6.6c-1.9-2.1-4-4.2-5.9-6.3
			c-2.1-2.2-4.2-4.4-6.3-6.6c-2-2.1-4-4.2-5.9-6.3c-2.1-2.2-4.2-4.4-6.3-6.6c-1.9-2.1-4-4-5.9-6.3c3.4-0.9,9.5-1.1,15-0.5
			c2.7,3.2,5.2,6.3,7.8,9.3c6.1,7,12.3,13.9,18.4,20.9c0.9,1.1,2,2.1,3.1,3.3c1.8-1.2,3.7-2.2,5.3-3.4c11.6-8.5,23.2-17,34.8-25.6
			c1.8-1.3,3.2-3,4.9-4.6c6.8-0.5,16-0.4,19.7,0.4c-1.8,1.9-3.8,3.1-5.7,4.5c-1.8,1.4-3.6,2.7-5.4,4c-1.9,1.4-3.9,2.9-5.8,4.3
			c-1.8,1.3-3.6,2.7-5.4,4c-1.9,1.4-3.9,2.9-5.8,4.3s-3.9,2.9-5.8,4.3c-1.8,1.3-3.6,2.7-5.4,4c-1.9,1.4-3.9,2.9-5.8,4.3
			c-1.8,1.3-3.6,2.6-5.4,4c-1.9,1.5-4,2.6-5.7,4.7c1.1,1.3,2.1,2.5,3.2,3.7c68.9,75.5,137.1,151.7,204.3,228.7
			c44.8,51.4,89.2,103.1,132.2,156c18.7,23,37.1,46.1,54.5,70.1c4.4,6,3.6,3.5,3.7,11.4c0,6.4,0,12.8,0,19.2c0,2.3-0.6,4.3-1.9,6.2
			c-7.7,11.4-16,22.4-24.7,33.1c-23.1,28.7-47.6,56.1-72.6,83.1C855,703.1,820.9,737.8,786.3,772c-61,60.3-123.7,118.8-187.4,176.2
			c-1.9,1.7-3.8,3.4-6.3,5.7c8.8,6.1,17.2,11.6,25.6,17.2c8.2,5.5,16.5,11,24.6,16.5c-0.3,1.4-1.2,1.2-1.9,1.2
			c-2.6,0-5.1-0.1-7.7,0.1 M620.6,985.4c-8-5.3-16-10.5-24.1-15.8c-3.2-2.1-6.4-4.1-9.8-6.2c-1.4,1.2-2.6,2.2-3.7,3.3
			c-5.8,5.7-11.6,11.5-17.4,17.2c-0.1,0.1-0.2,0.2-0.3,0.3c-4.4,4.3-4.5,4.4-10.5,4.4c-2.9,0-5.8-0.1-8.6-0.2
			c-0.6,0-1.1-0.2-2.2-0.4c1.9-2.5,3.9-4,5.7-5.7c2-1.9,4-3.7,5.9-5.6c1.9-1.8,3.7-3.5,5.6-5.2s3.7-3.5,5.6-5.2c2-1.9,4-3.7,5.9-5.6
			c1.8-1.8,3.9-3.3,5.4-5.4c-0.4-0.5-0.6-0.9-1-1.2c-23.8-16.4-47.7-32.8-71.3-49c-0.5,0-0.7,0-0.8,0c-0.2,0-0.3,0-0.5,0.1
			c-23.1,15.6-46.1,31.1-69.2,46.7c-1,0.7-2.1,1.5-3,2.2c-0.1,1.7,1.2,2.3,2.1,3.1c9.1,8.5,18.3,17,27.5,25.4
			c1.8,1.6,3.5,3.3,5.6,5.2c-0.8,0.4-1.3,0.8-1.8,0.8c-4,0.1-8,0.1-12,0.2c-2.5,0-4.6-1-6.4-2.9c-3.3-3.4-6.7-6.9-10.1-10.3
			c-4.3-4.3-8.6-8.6-12.9-12.9c-2.2,0.4-3.7,1.6-5.2,2.6c-10.5,6.7-21.1,13.3-31.5,20.2 M24.3,531.3c1,0.9,1.8,1.7,2.6,2.4
			c29,23.6,58.7,46.4,88.5,69.2c39.8,30.4,79.6,60.8,119.3,91.3c22.6,17.4,44.9,35,68,51.7c47.3,34.2,94.6,68.5,141.9,102.6
			c18.8,13.6,37.7,27,56.6,40.5c1.3,0.9,2.4,2.2,4.2,2.2c1.6-1,3.2-2,4.8-3c18.9-13.2,37.9-26.2,56.6-39.6
			c35-25,69.8-50.4,104.8-75.4c29-20.7,58-41.5,86.4-63.2c61.1-46.5,122.2-93,183.3-139.5c12.8-9.8,25.5-19.8,38.3-29.8
			c1-0.8,1.8-1.7,2.8-2.7c-0.9-0.9-1.5-1.6-2.2-2.3c-18.6-16.8-37-33.9-55.9-50.5C868,436,811.5,386.8,755.1,337.6
			c-13.9-12.1-27.5-24.5-41.6-36.3c-31-25.8-62.2-51.3-93.3-77c-28.5-23.5-56.9-47.2-85.5-70.6c-10.3-8.4-20.8-16.5-31.2-24.8
			c-1.3-1.1-2.6-2.4-4.5-2.7c-1.4,1.1-2.9,2.1-4.2,3.2c-21,17.1-42,34.1-62.9,51.3c-31.5,25.9-62.9,52-94.4,77.9
			c-26.8,22-53.8,43.9-79.9,66.9c-24.3,21.4-48.6,42.6-72.9,63.9c-43.3,38-86.7,75.9-129.9,113.9c-9.3,8.1-18.3,16.5-27.5,24.7
			C26.3,529,25.4,530.1,24.3,531.3z M581.7,61.9c-1.1,0.7-2,1.3-2.8,2c-4.2,3.2-8.3,6.5-12.5,9.7c-17.5,13.6-35.1,27.3-52.7,40.9
			c-1.3,1-3,1.8-3.8,3.8c2.5,2.1,4.8,4.2,7.3,6.2c10.5,8.4,21,16.8,31.4,25.2c38.4,30.9,76.3,62.3,113.2,95
			c25.7,22.8,51.3,45.8,77.1,68.5c44.3,38.8,88.7,77.4,133.1,116.1c25.7,22.4,51.5,44.6,77.3,66.9c1.1,0.9,2.2,1.7,3.4,2.6
			c2.2-4.9,2.2-5.3-0.5-9c-3.3-4.5-6.6-9.1-10.1-13.4c-27.2-33.5-54.5-67-81.8-100.4C811,315.5,759.6,256.7,707.1,199
			c-40.9-45-82.6-89.2-122.9-134.7C583.5,63.5,582.6,62.8,581.7,61.9z M417.1,62.1c-1.1,1.2-2.3,2.5-3.5,3.8
			c-29.3,32.2-58.7,64.3-88,96.5c-23.1,25.4-46.3,50.9-69.3,76.5c-12.7,14.1-25.5,28.3-37.8,42.8c-23.9,28.2-47.6,56.6-71.1,85
			c-25.8,31-51.4,62.1-76.9,93.3c-8.5,10.4-17.1,20.7-24.8,31.8c-0.7,1-1.3,2.1-2.1,3.4c3.3,1.3,6.1,1.6,8.7-0.8
			c0.8-0.8,1.7-1.5,2.5-2.2c19.9-17.3,39.8-34.6,59.8-51.9c63.3-54.8,126.4-109.6,188.9-165.2c26.2-23.3,52.5-46.4,79.3-69
			c27.4-23.1,55.4-45.5,83.1-68.2c7.2-5.9,14.3-11.8,21.4-17.7c0.7-0.6,1.7-1,1.6-2.2C485.7,114.5,420.5,64,417.1,62.1z M587,947.8
			c1.4-1.2,2.6-2.2,3.7-3.3c12.5-12,24.8-24,37.3-35.9c34.9-33.2,69.8-66.3,104.7-99.5c32.6-31,64.3-62.8,95.5-95.2
			c40.5-42,80.3-84.8,120.2-127.5c3.7-4,7.1-8.3,10.5-12.5c0.3-0.3,0.3-0.9,0.6-1.9c-0.7-0.7-1.6-1.6-2.1-2c-3.1,0-4.7,1.4-6.3,2.7
			c-11.9,8.9-23.8,17.9-35.7,26.8c-68.9,51.6-137.5,103.5-205.7,156c-23.6,18.2-47,36.5-71,54.1c-31.1,22.8-62.7,44.9-94,67.3
			c-8.7,6.2-17.5,12.4-26.2,18.7c-1.1,0.8-2.1,1.8-3.7,3.1C539.1,915.1,562.9,931.4,587,947.8z M47.6,560.7c0,0.5-0.1,0.8,0,1
			c4.3,7.7,9,15,15.1,21.5c22.7,24.3,45.4,48.7,68.1,73c34.4,36.8,69.1,73.3,104.6,109.1c27.4,27.6,55.4,54.5,83.4,81.4
			c33.3,32.1,66.6,64.1,99.9,96.1c1.4,1.3,2.8,2.6,4.2,4c1-0.5,1.8-1,2.6-1.5c22.4-15.1,44.8-30.2,67.2-45.3
			c0.7-0.5,1.8-0.8,1.7-2.5c-1.9-1.5-4-3.2-6.1-4.8c-5.1-3.7-10.1-7.2-15.3-10.8c-49.6-34.5-98.3-70.4-146-107.6
			c-28.9-22.5-57.6-45.3-86.6-67.6c-52.5-40.3-105.3-80.4-157.9-120.5c-10.6-8-21.2-16-31.8-23.9C49.9,561.8,49,560.8,47.6,560.7z"
			/>
		<path d="M504.2,644.6c-1.1,0-2.2-0.1-3.4,0c-9.7,1-19.1-0.7-28.5-2.9c-11.4-2.7-22.6-6-33.4-10.4c-25-10.3-45.1-26.3-58.8-50
			c-9.6-16.5-17.1-33.9-21.5-52.6c-1.8-7.7-2.7-15.4-3.3-23.2c-0.5-5.9-0.7-11.8-1.2-17.7c-1.8-20.9,3.1-40.3,13.2-58.5
			c3-5.3,6.1-10.5,9.3-15.6c4.6-7.3,9.5-14.5,14.2-21.7c5.1-7.7,11.4-14.2,18.8-19.7c3.8-2.9,7.7-5.7,11.6-8.5
			c5.9-4.4,12.1-8.3,18.7-11.6c4.7-2.4,9.3-5,14-7.4c13.5-6.9,27.7-11.6,42.7-13.6c11.5-1.5,23-1.2,34.4,0.5
			c14.1,2.1,27.9,5.4,41.2,10.9c7.2,3,14.2,6.6,21.2,10.1c5.5,2.8,10.9,6,16.3,9.1c6.5,3.6,12.2,8.2,17.2,13.6
			c9.2,9.8,17.8,20.1,25.9,30.8c10.1,13.4,16.2,28.5,19.1,45c1.4,8,2.1,16.2,2.5,24.3c0.5,10-0.7,19.8-2.6,29.5
			c-4,20.3-10,40-18.1,59c-7.4,17.4-18.7,31.9-32.3,44.8c-5.5,5.2-11.8,9.4-18.5,12.7c-20.3,10.1-41.4,17.7-64,20.9
			c-9.6,1.3-19.4,1.7-29.1,2.5c-1.9,0.2-3.8,0-5.8,0C504.2,644.9,504.2,644.7,504.2,644.6z M662.8,474.5c-0.2-4.1-0.3-8.3-0.7-12.5
			c-0.5-5.9-0.8-11.8-2.5-17.5c-2.4-7.8-4.9-15.5-7.5-23.3c-0.4-1.4-1.1-2.7-1.9-3.9c-4.7-7.4-9.7-14.7-15.4-21.4
			c-1.4-1.7-3-3.3-4.7-4.8c-5.5-4.6-11-9.3-16.7-13.7c-8.5-6.6-17.7-12.1-27.6-16.3c-2.2-0.9-4.4-2-6.5-3.1
			c-12.3-6.7-25.5-10.9-39-14.5c-9.8-2.7-19.8-3.7-29.9-3c-8.6,0.6-17.1,2-25.6,3.7c-9.6,1.9-18.8,5.1-27.5,9.5
			c-14.9,7.5-28,17.3-40.3,28.3c-3.2,2.9-5.9,6.3-8.8,9.5c-1.2,1.3-2.3,2.7-3.6,3.8c-5.4,4.2-9.8,9.2-13.5,14.8
			c-3,4.5-5.9,9.1-8.8,13.8c-5,8.1-8.8,16.7-11.4,25.8c-1.5,5.1-2.8,10.2-4,15.3c-1.7,7.4-2.3,14.9-1.4,22.4c1,8.6,2,17.1,3.4,25.7
			c1.5,9,4,17.8,8.1,26c1.6,3.3,2.9,6.7,4.3,10.2c4.4,10.8,9.4,21.3,15.2,31.5c6.1,10.7,14.1,19.8,23.5,27.7
			c6.1,5.1,12.8,8.9,20.4,11.4c2.3,0.7,4.5,1.6,6.8,2.5c6.4,2.5,12.8,5,19.2,7.5c14.2,5.5,28.9,6.5,43.9,4.2
			c8.8-1.4,17.7-3,26.5-4.5c23.1-3.9,44.7-11.9,65.2-23.1c6.1-3.4,11.3-7.7,15.4-13.5c2.5-3.5,5.3-6.9,8.3-9.9
			c3.8-3.8,7.1-7.8,9.5-12.5c2.9-5.7,5.8-11.4,8.2-17.3c5.4-13.3,9.9-27,14-40.8C660.9,500,663,487.4,662.8,474.5z"/>
	</g>
</g>
<g>
	<path class="st1" d="M668.8,32.8c-0.7-0.8-1.3-1.6-2-2.4c2.4-1.3,4.1-4.2,2.1-6.9l-6.6-0.1c0.1-1.2-0.2-2.4-1-3.4
		c0.1,0,0.3,0,0.4,0c6.2-0.7,6.6-10,0-10c-16.2,0.1-32.3,1.1-48.4,2.9c-1.2,0.1-2.2,0.6-3,1.3c-3.6,0.2-7.3,0.3-10.9,0.4
		c-1,0-1.8,0.4-2.6,0.9c-0.3,0-0.7,0-1,0c-0.8-1.2-2.1-2.2-4.1-2.2c-27.4-0.7-54.9-1.3-82.3-2c-0.6-0.4-1.3-0.7-2.1-0.7
		c-9.7-1.1-19.3-1.8-29-2c-1,1.5-1.9,3-2.9,4.5c1-1.5,1.9-3,2.9-4.5c-16.9-0.4-33.8,0.6-50.6,2.8l0,0l0,0c-0.4,0.1-0.9,0.1-1.3,0.2
		c-0.1,0-0.3,0.1-0.4,0.1c-1.2-2.8-5.7-4.5-8.6-2.1c-3.3,2.8-6.7,5.6-10.1,8.3c-1.5-1-3.3-1.2-5-0.1c0,0,0,0-0.1,0
		c-0.6-3.3-3.9-6.1-7.2-3.6c-1.6,1.2-3.2,2.4-4.8,3.6c-1.1-2.5-4-4.4-7.1-2.8c-0.9,0.4-1.8,0.9-2.8,1.4c-4-3.1-8.2-6.1-12.4-8.9
		c-1.2-0.8-2.9-0.9-4.3-0.3c-1.8-0.6-3.8-0.2-5.1,1.2c-1.1,1.2-1.5,1.5-2.8,2.3c-0.5,0.3-0.5,0.3-1.3,0.6c-0.2,0.1-2,0.4-1.4,0.4
		c-2.7,0.3-5,2.1-5,5c0,2.5,2.3,5.3,5,5c0.7-0.1,1.3-0.2,1.9-0.3c-0.1,1.3,0.3,2.6,1.6,3.6c0.3,0.3,0.7,0.5,1,0.8l0,0
		c0.2,0.1,0.3,0.2,0.5,0.3c0.6,0.4,1.2,0.7,1.8,1.1c0.7,0.4,1.5,0.9,2.2,1.3c2.2,2.1,4.9,3.7,7.7,4.9c-4.7,3.6-9.5,7.1-14.2,10.7
		c-2.4,1.8-2.6,4.7-1.5,6.9c-0.4,0.4-0.8,0.7-1.2,1.1c-4.2,3.9,1.2,10.8,6.1,7.9c0.2-0.1,0.4-0.2,0.6-0.4c1.4,1.9,3.8,2.8,6.3,1.2
		l0,0c1.2,0.6,2.7,0.5,4.3-0.5c3-2,6-4,8.9-6.1c1.2-0.4,2.3-0.9,3.4-1.4c0.2,0.2,0.3,0.4,0.5,0.5c-1.1,0.7-2.2,1.4-3.2,2
		c-2.2,1.4-2.7,3.5-2.2,5.4c-3.1,2.6-6.1,5.2-9.2,7.8c-0.9,0.8-1.4,1.6-1.6,2.5c-0.1,0.1-0.2,0.2-0.3,0.3c-4.9,4.2,2.2,11.1,7.1,7.1
		c1.2-1,2.4-1.9,3.5-2.9c0.3,0,0.7,0,1,0c1.5,1.9,4.3,2.8,6.9,1.1c0.9-0.1,1.8-0.5,2.7-1.2c1.7-1.4,3.4-2.9,5.1-4.3
		c0.6-0.2,1.3-0.6,1.8-1.2c0.4-0.4,0.8-0.9,1.2-1.3c0.3-0.3,0.7-0.6,1-0.8c0.9-0.1,1.8-0.5,2.6-1.2c6.2-5.4,12.4-10.9,18.6-16.3
		c0.3,0.2,0.6,0.4,1,0.6c2,1,4,2.1,6.1,3.1c2.6,2.1,5.4,3.9,8.5,5.2c0.4,0.2,0.8,0.3,1.3,0.4c2.1,1.3,4.2,2.7,6.3,4
		c5.9,4.4,11.6,8.9,17.2,13.7c2.9,2.5,6.6,1.1,8-1.4c0.5,0.3,0.9,0.6,1.4,0.9l8.7,6.4c4.5,3.3,10.5-4.3,6.1-7.9
		c-0.3-0.3-0.6-0.5-1-0.7c3.5-0.9,5.1-6.4,1.3-9.3c-4.4-3.4-8.8-6.7-13.3-10c-0.2-1.4-0.9-2.7-2.3-3.5c-3-1.6-6-3.2-9-4.8
		c-0.8-0.6-1.6-1.2-2.5-1.8c1-0.6,1.7-1.6,2.1-2.6c0.8-0.2,1.6-0.4,2.4-0.6c4.6-1.3,4.9-8.5,0-9.6c-0.5-0.1-1-0.2-1.4-0.4
		c1-1.3,2.1-2.6,3.1-3.8c6.5,0.1,13,0.7,19.4,2c2.2,0.4,3.9-0.4,5-1.8c1.5,0.1,3,0.1,4.5,0.2c-1.9,3.6,0.7,9.3,5.4,7.4
		c0.4-0.2,0.8-0.3,1.2-0.5l0,0l0,0c3.5-1.5,7.1-3,10.5-4.6l-6.2,7.3c-3.3,3.8,0.8,10.8,5.4,8.2c1.1,2.7,4.4,4.7,7.3,2.9
		c7.4-4.7,14.8-9.6,22-14.6C531.3,38.9,526.2,43,521,47c-3.5,2.7-2.2,7.8,0.8,9.2c0.8,3,3.8,5.2,7,3c0.9-0.6,1.7-1.2,2.6-1.8
		c0.3,1.5,1.1,2.9,2.4,3.6c-2.7,3.4,0,8.9,3.9,8.4c1.1,0.4,2.5,0.3,3.9-0.4c13.8-6.9,27.4-14.3,40.6-22.3c0.2,0.2,0.3,0.4,0.5,0.6
		c0.9,0.9,1.8,1.8,2.7,2.7c7.9,8.9,16.2,17.3,25.1,25.2c2.1,1.9,4.6,1.6,6.4,0.3c0.5,0.5,1,1,1.5,1.5s1,0.9,1.6,1.1
		c1.8,1.4,3.8,1.3,5.3,0.4c2.5,2.1,5,4.1,7.6,6.1l0.1,0.1l0,0c0.3,0.3,0.7,0.5,1,0.8c1.2,0.9,2.5,1.1,3.7,0.7c1.6,2.1,3.3,4.3,5,6.4
		c3,3.7,7.3,0.9,8.1-2.8c0.5,0.2,1,0.3,1.5,0.5c4.7,1.4,8.6-5,4.9-8.4c-7.8-7-15.5-14.1-23.1-21.2c0.8-0.4,1.5-1.1,2-1.9
		c1.9-0.5,3.3-2.2,3.6-4.1c3.8-0.1,6.9-4.9,3.5-8.5c-0.6-0.7-1.3-1.3-1.9-2c1.4,1.1,2.8,2.2,4.2,3.3c1.6,1.2,4.2,2.2,6.1,0.8
		c2.8-2.1,3.6-4.5,3.3-6.9c2.1,0.2,3.9-1.3,4.6-3.3c0.8,0.6,1.6,1.3,2.4,1.9C666.7,44,672.9,37.8,668.8,32.8z"/>
	<path class="st1" d="M468.6,3.9c-0.2,0.2-0.4,0.5-0.7,0.7h0.1L468.6,3.9z"/>
</g>
<path class="st1" d="M671.3,938.1c-0.5,0.4-0.9,0.9-1.4,1.3c0.4-0.4,0.7-0.9,1.1-1.3c1.5-1.9,1.6-4,0.8-5.6c2.2-2.2,4.5-4.5,6.7-6.7
	c4.6-4.7-2.2-11.1-7.1-7.1c-4.1,3.4-8.1,6.8-12.1,10.2c0.8-1.3,0.8-2.6,0.4-3.8c0.2-1.3-0.2-2.7-0.9-3.8c-0.1-3.1-3.6-5.6-6.9-4.4
	c-1.5-2.4-4.9-3.6-7.7-1.1c-0.1,0.1-0.2,0.2-0.3,0.3c-0.6,0.2-1.2,0.6-1.8,1.1c-2.1,1.9-4.1,3.8-6.2,5.7c-1.2-0.4-2.5-0.3-3.9,0.7
	c-16.5,11.2-31.8,24-45.8,38c-3.8-2.6-7.6-5.1-11.3-7.7c-0.9-0.6-1.8-0.8-2.6-0.8c-1.9-1.4-3.8-2.7-5.7-4.1
	c-2.3-1.7-4.9-0.7-6.4,1.3c-1.3-0.9-2.6-1-3.8-0.5c-1.7-0.1-3.4,0.8-4.5,2.2c-1.1-0.6-2.2-1.3-3.3-1.9c-2.1-1.3-4.2-0.8-5.6,0.5
	c-1.1-0.7-2.1-1.4-3.2-2.1c-4.6-3-8.7,2.6-6.8,6.6c-2.5,1.7-3.8,5.5-1,7.7c1.6,1.3,3.2,2.5,4.9,3.8c-2.6,1.8-3.5,6.3,0,8.7
	c0.7,0.5,1.4,1,2.1,1.4c-2.9,0.9-4.5,5-2.6,7.9c-7.8-0.5-15.5-1-23.3-1.4c-0.7-1.9-2.3-3.7-4.6-3.9c-9.7-1-19.4-1.4-29-1.1
	c3.3-2.8,2.6-9.2-2.8-8.9c-0.1,0-0.3,0-0.4,0l22.6-3.3c0.8-1.2,0.9-2.5,0.6-3.7c5.1-5.8,10.3-12.6,6.9-20c-1-2.1-3.3-2.7-5.3-2.3
	c2.8-4.7-3.1-10-7.7-6.1c-3.1,2.6-6.2,5.2-9.3,7.9c-1.4-0.8-3.2-1-4.8-0.2c1.5-4.4-4.2-9.2-8.2-5.2c-1.7,1.8-3.5,3.6-5.2,5.4
	c-1.4-2.1-4.2-3.5-6.8-1.9c-1.9,1.2-3.7,2.4-5.6,3.7c-0.9-0.2-1.9-0.2-2.9,0.2c-1-0.2-2.1,0-3.1,0.8c-0.5,0.4-1.1,0.8-1.6,1.2
	c-1.4-0.2-2.8,0-4.2,1.1c-5.6,4.4-11.2,8.9-16.8,13.3c-6-4.7-12.1-9.2-18.4-13.5c-2.9-2.4-5.8-4.8-8.7-7.2c-3.1-2.5-7-0.8-8.3,2
	c0,0-0.1,0-0.1,0.1c-2.6,1.1-4.5,4.3-2.7,6.9c-1.9-0.1-3.6,0.9-4.6,2.4c-0.4-0.3-0.8-0.6-1.3-0.9c-3.3-2.3-7.2,0.8-7.6,4.2
	c-0.6-0.3-1.2-0.7-1.7-1c-1.1-0.7-2.2-0.8-3.2-0.7c-0.1-0.1-0.2-0.2-0.3-0.3c-2.2-1.6-4.7-0.7-6.2,1.1c-3,1.5-4.4,6.5-0.7,9.1
	c1.4,1,2.8,1.9,4.2,2.9c-1.5,1.5-2.1,4-1,6c-0.1,0.6-0.2,1.1-0.1,1.7c-2.1-1.2-4.1-2.4-6.2-3.6c-4.4-2.6-9.8,3.3-6.8,7.1
	c-1.8,0.7-3.2,2.6-3.4,4.5c-1,2-0.7,4.8,1.8,6.5l6-0.9c-2.2,2.9-0.5,8.2,3.9,8.2c1.2,0,2.4,0,3.6-0.1c0.5,0.4,1.1,0.7,1.8,0.8
	c11,1.9,22,1.7,32.6-0.6c1.4-0.1,2.8-0.1,4.2-0.1c5.2-0.1,10.4-0.4,15.7-0.8c0.8,0.6,1.7,1,2.7,1c24.1,1.6,48.3,0.6,72.1-2.9
	c56.9,1.8,114.2,10.8,169.5-6.2c5.5-1.7,4.3-9.5-1.3-9.8c-1-0.1-2-0.1-3-0.2c6.3-6.6,12.6-13.2,18.9-19.8c2.5-2.6,1.4-6-0.9-7.6
	c1.1-1.1,2.1-2.2,3.2-3.3C682.9,940.5,676,933.7,671.3,938.1z"/>
</svg>
