<?xml version="1.0" encoding="utf-8"?>
<!-- Generator: Adobe Illustrator 24.3.0, SVG Export Plug-In . SVG Version: 6.00 Build 0)  -->
<svg version="1.1" id="Calque_1" xmlns="http://www.w3.org/2000/svg" xmlns:xlink="http://www.w3.org/1999/xlink" x="0px" y="0px"
	 viewBox="0 0 3401.57 5102.36" style="enable-background:new 0 0 3401.57 5102.36;" xml:space="preserve">
<style type="text/css">
	.st0{fill:#E2E4E4;}
	.st1{fill:#2E361E;}
	.st2{fill:#FFFFFF;}
	.st3{fill:#DDD9D4;}
	.st4{fill:#7F9441;}
	.st5{fill:none;}
	.st6{font-family:'OpenSans-Regular';}
	.st7{font-size:223.2594px;}
</style>
<rect class="st0" width="3401.57" height="5102.36"/>
<rect x="510.25" y="3386.46" class="st1" width="154.16" height="154.16"/>
<rect x="834.64" y="3386.46" class="st1" width="154.16" height="154.16"/>
<rect x="1148.55" y="3386.46" class="st1" width="154.16" height="154.16"/>
<rect x="510.25" y="4013.47" class="st1" width="154.16" height="154.16"/>
<rect x="834.64" y="4013.47" class="st1" width="154.16" height="154.16"/>
<rect x="1148.55" y="4013.47" class="st1" width="154.16" height="154.16"/>
<rect x="510.25" y="1604.13" class="st1" width="154.16" height="154.16"/>
<rect x="1148.55" y="1604.13" class="st1" width="154.16" height="154.16"/>
<rect x="510.25" y="2231.14" class="st1" width="154.16" height="154.16"/>
<rect x="1148.55" y="2231.14" class="st1" width="154.16" height="154.16"/>
<rect x="675.67" y="3542.47" class="st1" width="154.16" height="154.16"/>
<rect x="988.79" y="3542.47" class="st1" width="154.16" height="154.16"/>
<rect x="510.25" y="3696.63" class="st1" width="154.16" height="154.16"/>
<rect x="1148.55" y="3696.63" class="st1" width="154.16" height="154.16"/>
<rect x="675.67" y="3852.64" class="st1" width="154.16" height="154.16"/>
<rect x="988.79" y="3852.64" class="st1" width="154.16" height="154.16"/>
<polygon class="st2" points="1342.24,2832.36 1542.37,2832.36 1542.37,2745.2 1868.38,2745.2 1868.38,2832.36 2003.95,2832.36 
	2003.95,2942.1 1868.38,2942.1 1868.38,3048.62 1548.82,3048.62 1548.82,2951.79 1342.24,2951.79 "/>
<rect x="1625.69" y="2812.99" class="st3" width="163.01" height="163.01"/>
<polygon class="st1" points="2100.79,3368.18 2100.79,3716.79 2278.32,3716.79 2278.32,3542.48 2433.25,3542.48 2433.25,3368.18 "/>
<polygon class="st1" points="2888.38,3366.31 2888.38,3714.91 2710.85,3714.91 2710.85,3540.61 2555.91,3540.61 2555.91,3366.31 "/>
<polygon class="st1" points="2888.38,4151.36 2888.38,3802.76 2710.85,3802.76 2710.85,3977.06 2555.91,3977.06 2555.91,4151.36 "/>
<polygon class="st1" points="2100.79,4151.36 2100.79,3802.76 2278.32,3802.76 2278.32,3977.06 2433.25,3977.06 2433.25,4151.36 "/>
<rect x="2065.28" y="1579.95" class="st1" width="201.74" height="201.74"/>
<rect x="2385.67" y="1579.95" class="st1" width="201.74" height="201.74"/>
<rect x="2686.64" y="1579.95" class="st1" width="201.74" height="201.74"/>
<rect x="2065.28" y="2183.56" class="st1" width="201.74" height="201.74"/>
<rect x="2385.67" y="2183.56" class="st1" width="201.74" height="201.74"/>
<rect x="2686.64" y="2183.56" class="st1" width="201.74" height="201.74"/>
<rect x="2065.28" y="1881.76" class="st1" width="201.74" height="201.74"/>
<rect x="2686.64" y="1881.76" class="st1" width="201.74" height="201.74"/>
<rect x="1371.29" y="1557.36" class="st4" width="216.27" height="929.62"/>
<rect x="1763.5" y="1557.36" class="st4" width="216.27" height="929.62"/>
<rect x="1371.29" y="3302.01" class="st4" width="216.27" height="929.62"/>
<rect x="1763.5" y="3302.01" class="st4" width="216.27" height="929.62"/>
<rect x="2026.57" y="1408.88" class="st4" width="919.94" height="51.65"/>
<rect x="414.24" y="1408.88" class="st4" width="919.94" height="51.65"/>
<rect x="2026.57" y="4318.83" class="st4" width="919.94" height="51.65"/>
<rect x="414.24" y="4318.83" class="st4" width="919.94" height="51.65"/>
<rect x="2615.63" y="1941.18" transform="matrix(6.123234e-17 -1 1 6.123234e-17 1108.5935 5042.5972)" class="st4" width="919.94" height="51.65"/>
<rect x="2615.63" y="3712.76" transform="matrix(6.123234e-17 -1 1 6.123234e-17 -662.9896 6814.1802)" class="st4" width="919.94" height="51.65"/>
<rect x="-108.67" y="1941.18" transform="matrix(6.123234e-17 -1 1 6.123234e-17 -1615.7086 2318.2952)" class="st4" width="919.94" height="51.65"/>
<rect x="-108.67" y="3712.76" transform="matrix(6.123234e-17 -1 1 6.123234e-17 -3387.2917 4089.8782)" class="st4" width="919.94" height="51.65"/>
<circle class="st2" cx="2476.83" cy="1982.63" r="80.7"/>
<circle class="st2" cx="2476.83" cy="3761.98" r="80.7"/>
<circle class="st2" cx="909.71" cy="3761.98" r="80.7"/>
<circle class="st2" cx="874.2" cy="1996.58" r="80.7"/>
<path class="st1" d="M874.2,1951.15c0,0-119.43-87.15-142.03-229.18c0-78.44,63.59-142.03,142.03-142.03s142.03,63.59,142.03,142.03
	C1016.23,1838.18,874.2,1951.15,874.2,1951.15z"/>
<path class="st1" d="M874.2,2045.54c0,0-119.43,87.15-142.03,229.18c0,78.44,63.59,142.03,142.03,142.03s142.03-63.59,142.03-142.03
	C1016.23,2158.52,874.2,2045.54,874.2,2045.54z"/>
<path class="st1" d="M927.46,1994.72c0,0,87.15,119.43,229.18,142.03c78.44,0,142.03-63.59,142.03-142.03
	c0-78.44-63.59-142.03-142.03-142.03C1040.44,1852.69,927.46,1994.72,927.46,1994.72z"/>
<path class="st1" d="M815.27,1994.72c0,0-87.15,119.43-229.18,142.03c-78.44,0-142.03-63.59-142.03-142.03
	c0-78.44,63.59-142.03,142.03-142.03C702.3,1852.69,815.27,1994.72,815.27,1994.72z"/>
<rect x="231.86" y="2486.98" class="st2" width="177.53" height="177.53"/>
<rect x="231.86" y="3048.62" class="st2" width="177.53" height="177.53"/>
<rect x="2986.83" y="2486.98" class="st2" width="177.53" height="177.53"/>
<rect x="2986.83" y="3048.62" class="st2" width="177.53" height="177.53"/>
<polygon class="st1" points="1416.48,2603.18 1403.57,3255.2 1245.41,3297.17 752.74,3297.17 510.25,3264.89 438.45,3206.79 
	402.94,3151.91 419.08,2548.31 464.27,2512.8 544.96,2493.43 752.74,2467.61 1065.87,2467.61 1274.46,2512.8 "/>
<polygon class="st1" points="1979.76,2603.18 1992.68,3255.2 2150.84,3297.17 2643.5,3297.17 2885.99,3264.89 2957.8,3206.79 
	2993.31,3151.91 2977.17,2548.31 2931.98,2512.8 2851.28,2493.43 2643.5,2467.61 2330.38,2467.61 2121.79,2512.8 "/>
<rect x="256.88" y="4250.24" class="st2" width="137.18" height="137.18"/>
<rect x="3007" y="4250.24" class="st2" width="137.18" height="137.18"/>
<rect x="256.88" y="1342.7" class="st2" width="137.18" height="137.18"/>
<rect x="1410.83" y="1342.7" class="st2" width="137.18" height="137.18"/>
<rect x="1803.04" y="1342.7" class="st2" width="137.18" height="137.18"/>
<rect x="1410.83" y="4284.89" class="st2" width="137.18" height="137.18"/>
<rect x="1803.04" y="4284.89" class="st2" width="137.18" height="137.18"/>
<rect x="3007" y="1342.7" class="st2" width="137.18" height="137.18"/>
<circle class="st4" cx="320.63" cy="2575.74" r="71.42"/>
<circle class="st4" cx="320.63" cy="3137.39" r="71.42"/>
<circle class="st4" cx="3075.6" cy="2575.74" r="71.42"/>
<circle class="st4" cx="3075.6" cy="1408.88" r="71.42"/>
<circle class="st4" cx="1871.63" cy="1408.88" r="71.42"/>
<circle class="st4" cx="1479.43" cy="1408.88" r="71.42"/>
<circle class="st4" cx="325.47" cy="1408.88" r="71.42"/>
<circle class="st4" cx="3075.6" cy="4315.33" r="71.42"/>
<circle class="st4" cx="1871.63" cy="4353.48" r="71.42"/>
<circle class="st4" cx="1479.43" cy="4353.48" r="71.42"/>
<circle class="st4" cx="325.47" cy="4315.33" r="71.42"/>
<circle class="st4" cx="3075.6" cy="3137.39" r="71.42"/>
<rect x="118.63" y="596.26" class="st5" width="3164.31" height="484.18"/>
<text transform="matrix(1 0 0 1 749.21 765.9325)"><tspan x="0" y="0" class="st6 st7">Le jardin médiéval </tspan><tspan x="477.1" y="267.91" class="st6 st7">d’Amiens</tspan></text>
<rect class="st5" width="3401.57" height="5102.36"/>
</svg>
